<?xml version="1.0" encoding="UTF-8" standalone="no"?>
<!DOCTYPE svg PUBLIC "-//W3C//DTD SVG 1.1//EN" "http://www.w3.org/Graphics/SVG/1.1/DTD/svg11.dtd">
<svg width="100%" height="100%" viewBox="0 0 1331 1308" version="1.1" xmlns="http://www.w3.org/2000/svg" xmlns:xlink="http://www.w3.org/1999/xlink" xml:space="preserve" xmlns:serif="http://www.serif.com/" style="fill-rule:evenodd;clip-rule:evenodd;stroke-linejoin:round;stroke-miterlimit:2;">
    <g id="Background" transform="matrix(2.75,0,0,2.75,-742.496933,-124.892521)">
        <g transform="matrix(1,0,0,1,128.363636,-103.636364)">
            <path d="M515.504,514.955C508.341,515.2 503.688,514.91 502.891,512.352C502.138,509.937 502.28,509.915 501.449,507.52C500.307,504.229 500.844,503.491 497.571,502.308C495.267,501.475 490.571,498.974 489.512,498.988C487.19,499.019 481.851,504.215 478.612,503.15C475.526,502.136 473.154,498.385 469.489,494.51C466.006,490.827 465.555,490.206 467.903,485.711C470.045,481.609 471.784,481.509 469.722,477.38C466.496,470.918 467.571,469.571 463.515,468.447C461.116,467.781 456.19,466.905 455.466,464.51C455.329,464.058 453.348,447.705 457.381,445.335C461.237,443.07 465.435,445.15 467.186,440.387C468.281,437.411 468.197,437.395 469.637,434.572C471.685,430.558 470.397,430.107 467.638,425.424C465.7,422.134 464.713,421.349 468.46,417.462C477.868,407.702 478.77,408.296 479.514,408.354C481.586,408.516 487.305,413.007 489.532,412.902C491.011,412.833 493.181,411.019 497.51,409.529C499.645,408.794 500.659,408.587 502.352,401.466C503.236,397.75 503.619,396.979 510.505,396.695C523.045,396.177 523.994,398.478 524.427,399.529C525.268,401.571 526.316,407.406 527.454,408.551C527.785,408.884 529.347,409.374 529.518,409.427C536.861,411.73 536.826,414.238 540.38,412.277C544.559,409.97 547.216,407.138 549.711,409.242C552.134,411.285 554.11,413.167 554.481,413.52C559.566,418.363 562.988,420.186 560.372,424.424C557.029,429.839 555.628,430.108 557.803,434.358C558.901,436.503 560.187,441.797 561.41,442.596C565.378,445.186 570.937,443.196 571.912,448.425C572.169,449.803 572.651,463.323 571.437,465.462C569.955,468.076 562.686,467.726 561.45,469.459C560.443,470.871 559.059,474.613 557.832,476.683C555.296,480.963 556.433,481.334 558.137,483.757C558.518,484.299 559.895,486.538 560.045,486.782C562.433,490.668 560.862,491.294 556.219,496.268C549.828,503.114 549.168,503.846 546.617,503.1C543.618,502.223 539.4,498.779 537.534,498.958C536.688,499.04 531.382,501.807 530.391,502.214C527.434,503.43 526.936,503.308 526.234,506.437C525.781,508.458 525.566,508.385 525.098,510.392C524.41,513.336 524.447,513.798 521.508,514.532C519.509,515.032 516.364,514.942 515.504,514.955Z" style="fill:rgb(76,47,78);"/>
        </g>
        <g transform="matrix(1,0,0,1,128.363636,-103.636364)">
            <path d="M513.436,417.261C514.981,417.353 514.965,417.333 516.504,417.425C526.188,418.007 536.027,424.226 539.896,428.134C546.671,434.977 548.302,440.046 549.625,443.454C550.924,446.799 551.691,454.065 551.47,457.498C550.938,465.776 549.674,468.514 549.268,469.392C547.151,473.973 547.188,473.99 546.781,474.653C545.136,477.332 543.81,481.008 535.335,487.286C529.731,491.438 524.467,492.211 524.44,492.217C519.023,493.417 519.109,493.909 513.575,494.101C512.512,494.011 507.206,493.559 500.467,491.618C499.243,491.265 494.708,489.959 486.947,483.196C484.13,480.313 480.732,477.019 478.34,470.558C476.174,464.708 475.914,464.732 475.648,458.498C475,443.279 480.861,436.264 483.925,431.805C486.271,428.39 492.107,424.334 493.51,423.514C500.002,419.72 500.362,419.929 501.526,419.586C507.361,417.869 507.387,418.009 513.436,417.261Z" style="fill:rgb(175,54,70);"/>
        </g>
        <g transform="matrix(1,0,0,1,128.363636,-103.636364)">
            <path d="M479.953,454.505C480.001,453.988 480.502,445.256 485.084,438.201C498.012,418.298 519.09,422.726 520.441,422.933C525.241,423.667 530.977,427.145 533.654,429.278C536.458,431.512 541.102,434.591 544.612,443.464C547.52,450.814 547.082,452.62 547.141,454.509C547.522,466.785 540.252,476.68 538.418,478.392C533.217,483.251 532.335,484.155 526.605,486.759C512.972,492.956 497.821,488.421 488.611,478.386C487.148,476.792 483.973,472.227 483.591,471.451C479.832,463.822 479.935,455.891 479.953,454.505Z" style="fill:rgb(80,40,79);"/>
        </g>
        <g transform="matrix(1,0,0,1,128.363636,-103.636364)">
            <path d="M513.507,485.949C513.367,485.943 512.381,486.356 506.604,485.057C502.292,484.087 500.254,482.787 496.49,480.515C493.917,478.963 490.159,474.761 489.82,474.264C487.935,471.493 484.582,465.088 484.141,460.55C483.082,449.659 485.605,445.669 486.864,442.665C487.12,442.053 489.373,438.246 490.742,436.715C495.149,431.785 499.061,429.948 500.333,429.194C501.041,428.775 506.988,426.07 512.502,425.964C523.233,425.758 529.546,430.198 534.114,433.949C540.362,439.079 546.417,453.798 541.817,465.624C540.627,468.685 538.568,474.041 531.761,479.812C531.372,480.142 529.855,481.427 526.352,483.184C524.266,484.23 520.017,485.188 519.454,485.315C516.527,485.974 516.526,485.851 513.507,485.949Z" style="fill:rgb(237,219,205);"/>
        </g>
        <g transform="matrix(1,0,0,1,128.363636,-103.636364)">
            <path d="M489.946,456.5C490.225,445.185 489.681,445.167 490.125,443.425C490.676,441.263 494.076,440.555 500.382,437.286C501.972,436.461 510.535,432.509 511.311,432.125C513.226,431.177 513.509,430.987 519.713,434.018C532.315,440.175 532.311,440.153 533.402,440.696C535.666,441.823 536.462,441.123 537.17,443.554C537.35,444.169 537.385,454.846 537.382,458.499C537.372,468.136 538.041,469.157 534.542,470.59C531.922,471.663 531.381,472.315 529.39,473.235C526.939,474.368 527.019,474.5 524.579,475.668C514.675,480.411 514.715,480.731 513.488,480.601C512.773,480.525 507.246,478.155 505.597,477.316C503.802,476.403 500.389,475.14 492.645,471.217C489.699,469.724 490.025,468.973 489.946,456.5Z" style="fill:rgb(66,50,78);"/>
        </g>
        <g transform="matrix(1,0,0,1,128.363636,-103.636364)">
            <path d="M515.483,400.76C517.31,400.87 517.299,400.859 517.456,400.879C522.846,401.556 521.139,403.781 523.128,409.624C524.071,412.396 525.459,412.033 528.614,413.182C534.863,415.458 536.756,416.874 537.596,417.07C539.695,417.56 545.523,413.295 546.622,412.878C548.151,412.3 550.248,414.445 552.874,417.117C554.947,419.227 556.843,420.636 557.05,421.584C557.387,423.133 554.203,426.958 553.337,428.394C551.578,431.311 552.077,431.739 554.746,437.376C556.935,441.998 556.324,444.246 558.185,445.948C559.724,447.356 567.53,446.99 568.462,450.51C568.646,451.205 568.535,451.219 568.718,459.495C568.769,461.781 569.073,463.54 562.575,464.87C558.776,465.647 558.207,465.605 556.424,470.475C553.595,478.205 550.658,478.525 552.735,482.373C555.677,487.822 558.502,488.563 554.605,492.602C548.437,498.997 547.969,499.446 545.585,498.312C539.512,495.425 539.15,493.573 534.743,495.957C529.93,498.561 525.906,499.439 524.422,500.404C523.76,500.835 523.142,502.88 521.666,508.545C521.194,510.359 520.698,510.393 520.556,510.59C518.649,509.023 513.999,509.653 513.748,509.5C513.42,509.3 514.229,503.82 513.575,494.101C519.109,493.909 519.023,493.417 524.44,492.217C524.467,492.211 529.731,491.438 535.335,487.286C543.81,481.008 545.136,477.332 546.781,474.653C547.188,473.99 547.151,473.973 549.268,469.392C549.674,468.514 550.938,465.776 551.47,457.498C551.691,454.065 550.924,446.799 549.625,443.454C548.302,440.046 546.671,434.977 539.896,428.134C536.027,424.226 526.188,418.007 516.504,417.425C514.965,417.333 514.981,417.353 513.436,417.261C513.465,416.865 513.273,416.901 513.302,416.5C513.339,415.994 513.506,416.049 513.563,415.533C513.676,414.518 513.531,414.533 513.523,413.501C513.455,404.276 513.383,402.941 513.707,402.381C513.707,402.381 515.341,400.889 515.483,400.76Z" style="fill:rgb(210,147,95);"/>
        </g>
        <g transform="matrix(1,0,0,1,128.363636,-103.636364)">
            <path d="M515.483,400.76C515.341,400.889 513.707,402.381 513.707,402.381C513.383,402.941 513.455,404.276 513.523,413.501C513.531,414.533 513.676,414.518 513.563,415.533C513.506,416.049 513.339,415.994 513.302,416.5C513.273,416.901 513.465,416.865 513.436,417.261C507.387,418.009 507.361,417.869 501.526,419.586C500.362,419.929 500.002,419.72 493.51,423.514C492.107,424.334 486.271,428.39 483.925,431.805C480.861,436.264 475,443.279 475.648,458.498C475.914,464.732 476.174,464.708 478.34,470.558C480.732,477.019 484.13,480.313 486.947,483.196C484.257,484.976 484.374,485.109 482.22,487.149C481.049,488.258 477.972,491.497 477.154,492.161C476.964,492.314 476.624,492.334 476.543,492.564C476.371,493.051 476.942,493.055 476.681,493.5C476.162,494.389 475.72,493.972 475.194,494.872C474.797,494.487 471.043,490.854 470.899,489.454C470.757,488.076 473.853,484.025 474.808,481.637C475.395,480.17 475.158,479.502 472.329,473.581C469.67,468.013 470.981,466.454 466.547,465.276C460.919,463.78 458.743,463.959 458.924,459.523C459.245,451.64 458.408,449.345 460.408,448.357C464.542,446.317 469.151,448.267 470.643,442.534C471.32,439.933 471.453,439.994 472.533,437.516C474.346,433.352 474.483,433.422 474.791,432.611C475.538,430.647 474.312,429.337 473.391,427.561C471.427,423.774 468.816,422.567 471.588,419.582C471.938,419.205 477.173,414.24 477.729,413.763C480.41,411.461 480.853,413.118 483.498,414.504C488.161,416.948 488.278,417.744 490.622,416.762C492.864,415.822 492.65,415.36 500.495,412.485C503.337,411.443 503.88,410.965 505.183,404.428C506.038,400.131 507.773,400.865 515.483,400.76Z" style="fill:rgb(242,209,141);"/>
        </g>
        <g transform="matrix(1,0,0,1,128.363636,-103.636364)">
            <path d="M486.947,483.196C494.708,489.959 499.243,491.265 500.467,491.618C507.206,493.559 512.512,494.011 513.575,494.101C514.229,503.82 513.42,509.3 513.748,509.5C513.999,509.653 518.649,509.023 520.556,510.59C520.421,510.625 520.136,511.209 515.494,511.279C507.784,511.394 507.171,510.809 506.656,510.318C505.86,509.559 504.454,502.645 503.132,500.758C502.041,499.199 496.456,498.039 492.335,495.792C488.86,493.898 488.576,495.001 482.42,498.364C479.341,500.046 479.02,498.827 475.194,494.872C475.72,493.972 476.162,494.389 476.681,493.5C476.942,493.055 476.371,493.051 476.543,492.564C476.624,492.334 476.964,492.314 477.154,492.161C477.972,491.497 481.049,488.258 482.22,487.149C484.374,485.109 484.257,484.976 486.947,483.196Z" style="fill:rgb(220,169,113);"/>
        </g>
        <g transform="matrix(1,0,0,1,128.363636,-103.636364)">
            <path d="M512.126,461.508C512.144,462.612 512.346,474.729 512.065,475.311C511.51,476.461 508.621,474.933 508.357,474.793C498.099,469.364 493.814,470.118 493.623,465.494C493.608,465.118 493.308,448.495 493.72,447.604C494.2,446.566 495.291,446.87 495.434,446.91C495.843,447.024 510.61,454.141 511.225,454.767C512.195,455.754 512.059,460.009 512.126,461.508Z" style="fill:rgb(80,172,115);"/>
        </g>
        <g transform="matrix(1,0,0,1,128.363636,-103.636364)">
            <path d="M533.89,461.47C533.932,465.942 534.45,466.688 531.43,468.361C530.089,469.103 518.237,474.896 517.436,475.215C515.711,475.903 515.285,475.412 515.23,473.55C515.193,472.267 515.248,472.279 515.168,457.5C515.151,454.528 516.38,454.536 519.338,453.134C531.122,447.551 533.754,445.073 533.816,449.475C533.869,453.31 533.692,453.963 533.89,461.47Z" style="fill:rgb(54,107,59);"/>
        </g>
        <g transform="matrix(1,0,0,1,128.363636,-103.636364)">
            <path d="M501.423,440.355C502.996,439.491 502.935,439.415 504.599,438.742C511.324,436.023 512.154,434.675 514.545,435.328C515.48,435.583 515.451,435.661 525.497,440.507C529.715,442.541 530.393,442.139 530.396,443.494C530.398,444.264 530.24,444.25 529.528,444.541C528.232,445.072 521.601,448.321 519.41,449.279C514.084,451.607 513.891,452.209 511.301,450.937C508.466,449.545 508.422,449.67 505.591,448.29C497.931,444.556 497.114,444.121 496.802,443.471C496.378,442.588 497.589,442.309 501.423,440.355Z" style="fill:rgb(80,179,119);"/>
        </g>
        <g transform="matrix(1,0,0,1,-311.272727,53.090909)">
            <path d="M654.127,303.513C654.123,302.867 654.086,296.304 654.212,295.445C654.954,290.386 661.663,293.796 663.336,289.446C665.733,283.211 666.979,282.82 666.111,280.675C664.564,276.854 661.018,275.243 664.48,271.481C666.718,269.05 668.88,266.411 671.543,264.564C674.721,262.361 675.911,264.299 679.549,266.413C681.352,267.46 681.503,266.905 686.39,265.163C691.268,263.424 690.463,262.299 692.065,257.365C692.946,254.654 694.144,254.297 699.502,254.271C707.654,254.232 708.655,254.655 709.38,256.557C710.795,260.268 709.419,262.836 714.401,264.762C719.323,266.664 719.209,266.914 719.645,267.052C721.507,267.641 726.452,263.834 727.534,263.643C727.888,263.581 728.88,262.393 736.183,270.761C739.354,274.394 738.369,275.057 736.776,277.663C734.783,280.924 734.444,281.233 736.124,284.677C736.935,286.342 737.892,289.295 737.907,289.33C739.737,293.313 746.342,290.847 747.511,295.497C748.099,297.834 747.807,305.631 747.774,306.512C747.608,310.958 745.084,310.128 740.441,311.292C737.353,312.065 738.214,313.888 736.034,318.254C734.328,321.671 735.11,321.902 736.982,325.233C739.322,329.397 738.793,329.875 736.884,331.9C733.955,335.005 733.888,334.913 731.014,338.061C728.524,340.788 727.088,339.469 724.737,338.076C720.746,335.711 720.455,335.736 718.591,336.685C715.474,338.271 713.729,338.753 712.469,339.45C710.417,340.584 709.859,346.278 708.565,347.562C706.99,349.125 696.162,349.461 693.602,348.278C689.708,346.477 694.082,341.009 686.635,338.192C682.771,336.731 682.844,336.604 682.509,336.479C678.814,335.094 676.501,340.272 673.448,339.779C672.478,339.623 671.291,339.055 664.4,331.592C661.798,328.774 662.807,328.146 665.875,322.714C666.967,320.781 666.569,320.562 663.928,314.344C662.627,311.278 661.497,311.62 657.471,310.609C653.735,309.67 654.221,308.253 654.127,303.513Z" style="fill:rgb(79,46,73);"/>
        </g>
        <g transform="matrix(1,0,0,1,-311.272727,53.090909)">
            <path d="M700.606,272.985C704.683,273.245 707.064,273.486 709.551,274.376C718.375,277.533 721.929,282.108 724.356,285.606C730.244,294.092 732.33,311.713 719.379,323.354C708.745,332.913 692.288,331.81 683.552,324.44C682.903,323.894 678.531,320.205 676.602,316.438C672.689,308.794 672.934,305.864 672.713,303.498C672.605,302.001 671.913,292.459 677.221,285.286C677.401,285.043 681.374,279.185 687.395,276.276C693.951,273.109 696.401,273.258 700.606,272.985Z" style="fill:rgb(76,43,72);"/>
        </g>
        <g transform="matrix(1,0,0,1,-311.272727,53.090909)">
            <path d="M725.084,296.589C725.174,297.128 727.031,303.116 723.711,311.577C721.347,317.599 715.494,322.834 711.513,324.531C709.661,325.32 701.281,329.553 691.304,324.884C688.983,323.798 686.693,323.093 682.356,318.637C675.302,311.39 671.848,294.97 682.776,283.777C688.663,277.747 701.003,271.592 715.184,280.98C721.745,285.323 723.986,292.354 724.364,293.54C724.44,293.779 724.417,293.766 725.084,296.589Z" style="fill:rgb(239,215,199);"/>
        </g>
        <g transform="matrix(1,0,0,1,-311.272727,53.090909)">
            <path d="M700.62,258.013C700.942,257.991 703.636,257.811 704.646,258.111C706.674,258.714 707.176,262.555 707.807,264.399C708.639,266.832 709.102,266.576 711.542,267.384C718.375,269.648 718.94,272.591 724.264,269.115C727.137,267.238 728.15,266.396 732.098,270.848C734.58,273.646 735.161,274.154 733.07,277.244C730.776,280.633 730.324,280.965 732.07,284.663C734.463,289.733 734.222,289.819 734.805,291.371C736.078,294.755 738.563,294.676 740.596,295.152C744.675,296.105 744.601,297.58 744.682,302.495C744.721,304.819 745.185,306.733 742.501,307.502C738.277,308.712 736.177,307.582 734.861,311.626C732.251,319.649 729.564,319.822 732.163,323.7C734.75,327.561 735.905,328.318 732.679,331.659C729.677,334.769 728.638,336.319 726.559,335.364C722.25,333.382 721.581,330.949 717.739,332.939C710.412,336.733 710.278,336.448 709.652,336.797C706.808,338.383 707.488,344.299 705.376,345.293C704.001,345.94 696.623,345.346 696.534,345.328C694.676,344.958 694.645,342.389 694.257,340.537C693.036,334.711 690.418,337.042 683.748,333.099C680.341,331.084 679.254,333.166 676.516,334.532C672.557,336.507 672.404,334.878 669.294,331.722C666.781,329.171 666.253,328.48 669.04,324.214C671.336,320.698 669.996,319.829 668.219,315.609C665.624,309.447 665.767,308.761 662.538,308.239C657.165,307.371 657.358,306.295 657.232,303.515C658.753,302.353 658.589,301.869 660.491,301.824C666.012,301.694 666.005,301.64 666.485,301.651C670.239,301.733 670.247,301.636 670.561,301.726C670.874,301.815 670.905,302.293 671.156,302.5C671.632,302.892 672.237,303.106 672.713,303.498C672.934,305.864 672.689,308.794 676.602,316.438C678.531,320.205 682.903,323.894 683.552,324.44C692.288,331.81 708.745,332.913 719.379,323.354C732.33,311.713 730.244,294.092 724.356,285.606C721.929,282.108 718.375,277.533 709.551,274.376C707.064,273.486 704.683,273.245 700.606,272.985C700.547,272.066 700.412,269.935 700.326,261.481C700.306,259.601 699.958,259.66 699.976,259.5C700.035,258.963 700.561,258.55 700.62,258.013Z" style="fill:rgb(210,150,102);"/>
        </g>
        <g transform="matrix(1,0,0,1,61.454545,159.272727)">
            <path d="M351.899,197.504C351.708,198.652 352.327,200.032 349.546,200.734C348.071,201.106 347.915,200.936 347.004,202.149C345.129,204.646 347.641,206.848 347.751,207.429C347.807,207.728 348.435,208.934 343.89,212.934C342.8,213.894 342.931,214.221 341.482,214.346C339.505,214.515 337.637,211.649 335.531,213.539C334.743,214.246 333.127,218.099 332.591,218.587C331.818,219.291 329.787,219.335 326.502,219.355C321.982,219.383 323.237,215.699 321.204,213.827C318.187,211.049 317.216,216.263 313.738,214.072C313.417,213.87 308.932,210.018 308.653,208.462C308.273,206.338 310.667,206.133 310.263,203.559C309.666,199.753 304.73,202.467 304.618,197.499C304.486,191.639 304.549,190.25 307.481,189.425C309.702,188.801 310.276,188.834 310.221,186.52C310.156,183.814 307.355,182.816 309.951,179.85C313.428,175.876 314.393,175.326 317.325,176.864C321.199,178.895 322.373,174.937 322.503,174.501C323.469,171.245 324.185,171.183 329.501,171.399C335.359,171.636 333.036,175.72 335.735,177.048C336.952,177.647 338.148,177.179 338.342,177.103C340.633,176.206 341.142,174.744 344.343,177.678C347.416,180.495 347.489,181.1 347.536,181.496C347.711,182.947 344.777,187.419 347.402,188.68C347.564,188.758 347.6,188.601 349.522,189.443C352.368,190.69 351.86,193.007 351.899,197.504Z" style="fill:rgb(84,39,80);"/>
        </g>
        <g transform="matrix(1,0,0,1,61.454545,159.272727)">
            <path d="M327.501,174.468C329.612,174.708 330.152,174.364 330.741,176.395C331.453,178.848 331.176,179.601 334.566,180.166C338.413,180.807 338.421,180.381 340.494,180.202C341.182,180.143 344.148,180.433 343.464,183.499C343.452,183.552 341.798,187.579 343.874,190.271C345.586,192.491 348.739,190.49 348.783,194.5C348.795,195.567 348.835,197.117 347.585,197.628C344.149,199.031 343.535,198.92 342.887,202.574C342.315,205.791 344.105,207.128 343.441,208.471C342.311,210.756 340.797,210.478 340.52,210.428C339.527,210.246 338.226,208.175 333.372,210.275C329.834,211.806 332.636,215.73 328.499,215.664C324.623,215.603 326.429,212.642 323.273,210.834C318.811,208.279 318.375,209.551 316.594,209.948C314.87,210.333 312.075,208.741 312.898,206.576C312.908,206.549 313.957,205.143 313.631,202.491C313.046,197.722 308.828,198.565 308.104,196.696C307.836,196.006 307.79,193.741 307.871,193.523C308.674,191.357 313.089,191.893 313.916,187.608C314.381,185.204 311.87,183.014 313.184,181.209C313.307,181.04 314.164,179.862 315.501,179.983C317.039,180.123 316.96,180.477 318.496,180.588C319.593,180.668 323.313,180.421 324.598,178.568C326.055,176.468 325.646,175.001 326.544,174.601C326.838,174.47 327.207,174.599 327.501,174.468Z" style="fill:rgb(165,51,76);"/>
        </g>
        <g transform="matrix(1,0,0,1,-311.272727,53.090909)">
            <path d="M700.62,258.013C700.561,258.55 700.035,258.963 699.976,259.5C699.958,259.66 700.306,259.601 700.326,261.481C700.412,269.935 700.547,272.066 700.606,272.985C696.401,273.258 693.951,273.109 687.395,276.276C681.374,279.185 677.401,285.043 677.221,285.286C671.913,292.459 672.605,302.001 672.713,303.498C672.237,303.106 671.632,302.892 671.156,302.5C670.905,302.293 670.874,301.815 670.561,301.726C670.247,301.636 670.239,301.733 666.485,301.651C666.005,301.64 666.012,301.694 660.491,301.824C658.589,301.869 658.753,302.353 657.232,303.515C657.224,300.987 657.192,298.102 657.364,297.468C657.977,295.203 662.694,295.171 664.383,294.28C666.854,292.977 665.389,291.624 669.795,283.653C671.483,280.6 669.424,279.644 667.626,276.434C666.087,273.685 666.975,273.418 669.193,271.193C672.08,268.296 673.157,266.547 675.419,267.683C679.825,269.896 679.9,271.674 684.543,269.586C686.993,268.485 686.965,268.428 689.558,267.725C693.562,266.641 693.372,265.915 694.415,261.484C695.41,257.252 696.597,257.786 700.62,258.013Z" style="fill:rgb(238,208,136);"/>
        </g>
        <g transform="matrix(1,0,0,1,61.454545,159.272727)">
            <path d="M328.492,206.177C327.164,206.094 326.102,206.397 322.552,204.415C313.419,199.318 316.043,184.029 328.507,184.051C339.818,184.072 343.728,199.897 332.382,205.242C330.551,206.105 330.493,205.9 328.492,206.177Z" style="fill:rgb(82,38,78);"/>
        </g>
        <g transform="matrix(1,0,0,1,61.454545,159.272727)">
            <path d="M325.595,202.222C325.205,202.023 324.781,201.897 324.391,201.699C319,198.955 319.073,188.296 327.523,187.807C338.069,187.196 337.902,200.204 330.432,202.274C327.641,203.047 326.721,202.474 325.595,202.222Z" style="fill:rgb(233,217,199);"/>
        </g>
        <g transform="matrix(1,0,0,1,-3.272727,11.272727)">
            <path d="M548.512,182.34C553.851,182.588 554.881,182.569 555.691,186.464C556.477,190.242 556.427,192.894 558.364,193.773C559.313,194.204 559.318,194.161 570.325,198.932C573.06,200.117 573.309,200.587 575.829,198.988C582.162,194.968 582.75,194.671 584.599,196.395C592.284,203.561 593.12,204.491 592.335,206.437C591.449,208.633 589.198,211.418 588.876,211.816C586.778,214.411 587.88,216.097 589.829,220.34C591.931,224.919 592.008,229.399 594.568,230.331C596.082,230.882 602.867,231.624 603.838,234.377C604.231,235.49 604.853,246.448 603.858,247.742C602.526,249.475 597.727,249.136 593.782,250.986C593.222,251.248 593.32,251.359 592.294,252.709C588.849,253.427 586.404,252.966 578.438,251.924C579.475,251.44 579.4,251.313 580.5,250.961C580.645,250.915 582.301,250.384 582.305,250.379C582.504,250.154 582.422,249.789 582.486,249.496C582.866,247.77 585.755,236.701 580.277,224.586C576.689,216.652 570.55,209.02 558.408,204.746C554.356,203.32 547.402,203.055 546.435,203.018C546.463,202.955 546.587,202.98 546.614,202.917C546.663,202.807 547.042,201.946 547.103,201.5C547.141,201.22 546.963,201.249 547.017,200.505C547.022,200.438 546.686,189.4 546.893,185.536C546.992,183.682 547.37,183.815 548.512,182.34Z" style="fill:rgb(213,154,95);"/>
        </g>
        <g transform="matrix(1,0,0,1,-3.272727,11.272727)">
            <path d="M548.512,182.34C547.37,183.815 546.992,183.682 546.893,185.536C546.686,189.4 547.022,200.438 547.017,200.505C546.963,201.249 547.141,201.22 547.103,201.5C547.042,201.946 546.663,202.807 546.614,202.917C546.587,202.98 546.463,202.955 546.435,203.018C537.979,203.421 536.508,204.443 531.447,206.375C527.253,207.976 518.28,214.567 515.473,220.487C513.924,223.755 513.428,223.596 512.973,227.176C512.167,227.117 512.305,226.691 511.5,226.632C511.038,226.598 511.188,227.03 510.706,227.01C510.273,226.992 509.9,226.689 509.49,226.549C507.097,225.727 503.898,225.948 503.578,225.36C503.44,225.107 503.812,224.749 503.666,224.5C503.392,224.032 502.717,223.894 502.442,223.426C503.862,221.047 503.392,220.847 504.909,217.72C506.811,213.797 504.652,213.163 502.968,210.234C500.461,205.873 499.581,205.342 501.876,202.815C502.292,202.357 502.314,202.384 507.332,197.335C510.212,194.438 510.868,194.638 514.373,196.728C519.223,199.617 519.502,200.419 522.417,199.265C526.561,197.624 526.419,197.35 530.578,195.689C532.443,194.945 535.464,193.573 535.52,193.525C537.419,191.911 537.443,184.035 539.752,182.883C541.413,182.055 546.812,182.293 548.512,182.34Z" style="fill:rgb(237,208,131);"/>
        </g>
        <g transform="matrix(1,0,0,1,-3.272727,11.272727)">
            <path d="M548.512,182.34C546.812,182.293 541.413,182.055 539.752,182.883C537.443,184.035 537.419,191.911 535.52,193.525C535.464,193.573 532.443,194.945 530.578,195.689C526.419,197.35 526.561,197.624 522.417,199.265C519.502,200.419 519.223,199.617 514.373,196.728C510.868,194.638 510.212,194.438 507.332,197.335C502.314,202.384 502.292,202.357 501.876,202.815C499.581,205.342 500.461,205.873 502.968,210.234C504.652,213.163 506.811,213.797 504.909,217.72C503.392,220.847 503.862,221.047 502.442,223.426C502.321,223.436 501.699,224.081 500.452,223.592C498.46,222.811 499.936,219.989 500.803,217.613C501.794,214.897 501.362,214.778 499.927,212.252C496.519,206.256 494.563,204.903 500.751,198.767C501.194,198.328 505.729,193.83 506.304,193.298C510.524,189.396 511.341,190.918 515.56,193.398C519.376,195.642 519.623,196.675 523.612,194.735C528.55,192.333 529.534,192.551 531.481,191.466C534.325,189.881 534.424,181.407 536.672,179.736C538.954,178.04 553.031,177.856 556.479,179.54C559.443,180.986 558.425,187.483 560.084,189.786C561.287,191.456 566.906,193.306 568.337,193.877C568.592,193.979 570.942,195.24 571.525,195.432C576.071,196.924 580.776,189.455 584.524,191.465C585.156,191.804 591.637,197.893 594.219,200.745C598.078,205.01 596.639,206.502 593.578,211.552C592.095,213.998 590.944,214.248 592.079,216.697C595.207,223.446 593.83,226.036 599.468,227.626C603.605,228.793 606.123,228.287 607.056,230.627C607.483,231.697 608.06,237.331 608.015,239.499C607.9,244.942 608.207,248.494 607.081,250.252C604.981,253.53 593.065,253.303 592.629,253.12C592.466,253.052 592.457,252.777 592.294,252.709C593.32,251.359 593.222,251.248 593.782,250.986C597.727,249.136 602.526,249.475 603.858,247.742C604.853,246.448 604.231,235.49 603.838,234.377C602.867,231.624 596.082,230.882 594.568,230.331C592.008,229.399 591.931,224.919 589.829,220.34C587.88,216.097 586.778,214.411 588.876,211.816C589.198,211.418 591.449,208.633 592.335,206.437C593.12,204.491 592.284,203.561 584.599,196.395C582.75,194.671 582.162,194.968 575.829,198.988C573.309,200.587 573.06,200.117 570.325,198.932C559.318,194.161 559.313,194.204 558.364,193.773C556.427,192.894 556.477,190.242 555.691,186.464C554.881,182.569 553.851,182.588 548.512,182.34Z" style="fill:rgb(76,42,74);"/>
        </g>
        <g transform="matrix(1,0,0,1,-3.272727,11.272727)">
            <path d="M546.435,203.018C547.402,203.055 554.356,203.32 558.408,204.746C570.55,209.02 576.689,216.652 580.277,224.586C585.755,236.701 582.866,247.77 582.486,249.496C582.422,249.789 582.504,250.154 582.305,250.379C582.301,250.384 580.645,250.915 580.5,250.961C579.4,251.313 579.475,251.44 578.438,251.924C576.972,251.644 576.984,251.657 575.539,251.28C575.626,250.983 575.958,250.797 576.045,250.5C576.333,249.519 575.866,249.438 576.506,247.502C578.078,242.746 578.267,230.9 572.304,222.622C567.645,216.157 564.883,215.043 561.686,213.167C560.423,212.426 555.166,209.062 545.495,209.273C532.652,209.553 522.898,218.236 519.334,225.415C519.212,225.662 517.872,228.361 517.808,228.5C517.643,228.858 517.593,229.261 517.428,229.619C514.32,228.221 514.153,228.452 512.973,227.176C513.428,223.596 513.924,223.755 515.473,220.487C518.28,214.567 527.253,207.976 531.447,206.375C536.508,204.443 537.979,203.421 546.435,203.018Z" style="fill:rgb(193,51,73);"/>
        </g>
        <g transform="matrix(1,0,0,1,-3.272727,11.272727)">
            <path d="M517.428,229.619C517.593,229.261 517.643,228.858 517.808,228.5C517.872,228.361 519.212,225.662 519.334,225.415C522.898,218.236 532.652,209.553 545.495,209.273C555.166,209.062 560.423,212.426 561.686,213.167C564.883,215.043 567.645,216.157 572.304,222.622C578.267,230.9 578.078,242.746 576.506,247.502C575.866,249.438 576.333,249.519 576.045,250.5C575.958,250.797 575.626,250.983 575.539,251.28C572.916,250.364 572.068,250.268 572.758,247.574C573.036,246.488 575.535,241.126 572.092,230.621C570.35,225.308 565.035,219.357 561.565,217.399C558.188,215.493 558.32,215.223 554.613,214.094C554.102,213.938 547.244,210.503 536.617,214.816C531.532,216.88 528.395,220.173 527.807,220.789C522.751,226.096 521.993,229.964 520.433,230.293C519.035,230.589 519.075,230.199 517.428,229.619Z" style="fill:rgb(80,40,80);"/>
        </g>
        <path d="M711.048,159.23C711.359,158.755 711.578,158.223 711.89,157.748C713.895,154.687 716.93,154.917 717.802,158.419C718.423,160.918 720.422,168.591 718.106,179.411C716.961,184.761 713.774,190.474 713.271,191.376C709.212,198.653 702.037,204.052 700.862,204.936C698.291,206.871 698.202,206.714 694.645,208.778C693.978,209.166 689.057,211.366 687.568,211.743C683.432,212.789 683.497,212.937 679.446,214.336C678.516,214.656 673.927,216.24 669.395,221.414C669.037,221.822 667.691,223.359 666.2,227.395C665.288,229.865 665.8,229.972 663.7,239.548C662.396,245.495 662.765,245.557 661.305,251.452C660.301,255.506 660.59,255.956 658.236,262.393C656.922,265.985 657.269,266.099 655.73,269.605C654.014,273.514 654.062,273.518 652.186,277.356C650.678,280.441 650.735,280.817 643.868,291.713C642.255,294.272 636.39,302.41 627.049,312.017C626.549,312.53 617.304,321.226 615.027,323.016C604.333,331.423 599.431,333.435 595.317,336.244C594.114,337.065 584.793,341.852 584.286,342.086C575.504,346.134 570.632,347.825 569.416,348.247C564.704,349.882 563.848,350.901 551.566,353.758C547.056,354.807 547.131,355.079 542.579,355.93C541.444,356.143 535.179,357.514 534.536,357.655C532.345,358.134 531.599,358.454 532.571,360.462C532.919,361.182 533.045,361.443 538.423,368.56C539.855,370.455 542.721,372.885 543.508,376.498C543.664,377.212 544.14,381.956 539.435,383.199C538.361,383.483 535.361,384.275 525.553,383.019C524.479,382.882 520.505,382.373 512.431,379.714C509.41,378.719 509.558,378.375 506.573,377.313C501.595,375.541 494.075,370.586 487.761,365.201C482.798,360.968 482.689,360.542 480.506,360.399C480.03,360.368 480.043,360.452 474.543,360.105C472.409,359.97 470.012,359.529 469.28,360.24C468.576,360.924 468.198,361.29 470.822,372.425C471.992,377.392 475.801,383.309 472.835,386.804C469.443,390.799 459.142,386.93 457.638,386.201C454.392,384.628 454.338,384.776 451.25,382.914C438.157,375.02 435.936,369.267 433.291,365.634C428.016,358.389 428.693,353.885 425.49,352.522C422.494,351.247 420.655,351.395 406.539,346.406C403.357,345.282 403.359,345.335 400.276,343.959C399.655,343.681 399.622,343.774 392.41,340.722C379.994,335.468 364.372,324.303 359.719,320.257C351.745,313.326 342.471,302.966 339.548,298.467C339.331,298.132 339.316,298.145 336.663,294.389C333.83,290.377 331.014,284.358 330.59,283.452C330.299,282.83 327.455,276.349 326.906,272.435C326.562,269.986 326.141,258.229 327.999,250.61C329.562,244.201 333.258,235.722 337.672,230.662C341.068,226.767 342.655,225.473 343.14,225.077C347.259,221.715 347.146,221.549 353.289,218.112C353.868,217.788 353.878,217.825 359.536,215.589C362.374,214.468 363.835,214.73 368.486,213.445C376.115,211.338 420.824,212.083 428.489,213.565C433.362,214.507 437.243,213.588 453.446,216.758C459.421,217.927 459.463,217.633 465.397,218.997C470.959,220.274 471.001,220.009 476.454,221.638C480.131,222.736 482.05,222.743 486.551,224.368C489.583,225.463 489.693,225.097 494.373,226.828C500.277,229.01 504.582,230.049 510.484,232.537C511.045,232.774 511.096,232.623 517.597,235.244C519.929,236.184 520.109,235.971 522.638,237.219C523.315,237.554 523.379,237.36 531.423,240.693C534.531,241.981 534.56,241.849 537.629,243.226C538.946,243.817 555.93,250.616 559.446,251.669C570.711,255.04 577.219,257.961 592.501,258.473C594.608,258.544 605.157,258.343 610.385,256.211C616.123,253.871 616.868,253.456 621.533,250.545C623.938,249.044 633.068,240.793 635.546,235.525C638.783,228.641 640.791,222.315 633.295,216.783C628.564,213.291 620.512,211.739 617.656,210.201C611.424,206.843 609.114,205.597 605.572,202.421C603.444,200.512 603.195,200.795 600.381,197.604C594.622,191.075 590.628,181.097 590.124,175.548C589.7,170.878 589.224,169.317 590.144,162.468C590.308,161.246 590.691,156.007 593.489,155.451C596.339,154.884 596.94,158.579 599.537,161.468C601.989,164.196 602.174,163.973 605.318,165.848C606.602,166.614 612.546,168.386 617.499,168.524C623.436,168.69 628.021,168.34 635.44,169.77C637.334,170.135 644.36,172.407 649.19,176.845C653.574,180.872 652.759,182.219 654.445,182.091C655.647,182 655.211,181.316 658.353,178.347C658.834,177.892 664.115,173.526 667.382,172.212C674.346,169.411 674.501,169.013 684.503,168.87C700.797,168.639 706.688,165.316 711.048,159.23Z" style="fill:rgb(72,43,87);"/>
        <path d="M447.526,227.864C445.123,230.391 444.94,230.299 444.624,231.539C443.381,236.418 448.068,237.856 449.519,237.749C450.932,237.644 452.593,236.073 452.814,235.865C453.614,235.109 453.674,234.425 460.5,234.406C464.238,234.395 463.971,235.321 467.539,238.452C473.4,243.596 478.165,240.131 479.342,241.608C479.569,241.893 479.465,242.359 479.692,242.644C478.247,243.781 478.269,243.792 477.023,245.149C476.017,246.245 475.939,246.154 474.55,246.715C470.809,246.661 470.814,246.685 470.49,246.673C466.414,246.523 465.549,242.947 462.659,242.01C459.851,241.099 446.154,241.692 440.503,241.716C436.231,241.733 437.267,238.48 433.5,238.477C428.149,238.473 426.586,245.524 431.419,247.663C435.214,249.344 437.131,246.056 438.297,245.175C439.613,244.181 448.484,244.625 458.502,244.593C462.01,244.583 461.928,245.12 464.61,247.369C468.692,250.793 470.204,249.449 471.475,249.735C471.934,249.838 472.245,250.325 472.703,250.429C472.878,251.454 473.052,252.479 473.227,253.505C473.11,253.606 472.446,254.194 472.397,254.22C472.238,254.302 455.418,254.068 454.413,253.928C452.509,253.661 452.054,251.597 449.566,251.146C443.601,250.065 442.385,257.469 445.513,259.483C450.061,262.412 451.895,258.516 453.573,257.661C454.796,257.037 465.537,257.565 474.527,257.443C474.709,257.614 475.052,257.52 475.234,257.691C475.34,257.791 475.892,258.309 475.49,259.496C474.902,261.231 468.714,261.032 467.557,263.529C466.46,265.896 466.904,273.394 466.908,273.44C467.327,277.941 467.6,279.235 469.678,280.113C474.101,281.982 477.345,281.073 475.223,285.396C473.59,288.721 471.493,290.814 473.554,293.456C473.628,293.55 480.25,300.225 481.577,301.41C484.18,303.736 484.629,302.504 487.634,300.73C491.427,298.489 492.164,300.619 492.935,301.317C492.681,301.855 491.853,301.962 491.598,302.5C491.451,302.811 491.866,303.142 491.91,303.484C491.922,303.58 491.831,303.967 491.864,305.472C491.921,308.018 491.985,308.003 491.882,310.561C491.749,313.692 491.642,313.692 491.805,314.469C492.607,318.291 499.144,320.248 506.919,327.009C508.898,328.73 510.787,330.047 514.241,334.684C517.183,338.634 522.175,355.922 527.258,363.658C529.259,366.705 529.198,367.151 531.723,370.334C535.756,375.416 536.429,376.148 536.414,376.466C536.402,376.719 536.649,377.226 536.396,377.226C518.145,377.205 512.561,373.673 508.848,372.008C508.492,371.848 499.325,366.518 498.372,365.75C496.217,364.011 495.111,363.386 494.722,363.072C490.362,359.548 490.508,359.403 486.616,355.371C486.226,354.966 482.852,351.471 481.829,350.228C479.894,347.876 474.438,338.752 473.782,337.374C472.042,333.715 471.683,333.922 469.967,330.236C467.977,325.959 467.426,323.177 466.801,321.405C464.688,315.417 464.981,315.342 462.807,309.381C461.178,304.916 459.586,306.325 456.47,305.636C452.725,304.809 448.742,303.15 448.295,302.993C444.877,301.796 444.97,301.598 441.595,300.264C438.872,299.187 438.989,298.975 436.382,297.792C434.314,296.854 434.455,296.644 432.521,295.468C427.306,292.298 427.584,291.943 424.637,289.368C424.162,288.954 419.257,284.669 418.693,284.208C410.718,277.691 410,277.308 404.441,274.602C402.023,273.424 401.96,273.615 399.496,272.51C395.162,270.567 394.983,271.184 390.409,269.826C385.518,268.373 385.438,268.782 380.453,267.714C377.472,267.075 377.464,267.214 374.467,266.683C373.122,266.445 366.499,265.274 357.479,264.939C336.35,264.154 336.342,264.4 334.51,264.245C334.091,264.21 333.695,264.019 333.276,263.983C333.929,263.585 334.793,258.791 334.826,258.645C335.971,253.687 335.873,253.669 336.008,253.248C337.699,247.959 338.012,245.133 344.635,237.622C348.271,233.5 355.886,229.276 358.44,228.322C369.491,224.195 372.064,224.683 373.5,224.497C379.472,223.726 379.486,224.375 385.5,224.342C387.418,224.331 400.704,224.258 409.473,224.052C414.497,223.935 414.477,224.507 419.487,224.297C423.997,224.109 423.963,224.588 428.475,224.829C436.528,225.261 436.504,225.405 444.521,226.321C446.743,226.575 447.432,227.8 447.526,227.864Z" style="fill:rgb(141,113,165);"/>
        <path d="M346.114,295.809C344.136,291.547 338.746,286.553 335.197,277.626C334.372,275.55 334.506,275.519 333.712,273.421C332.269,269.609 336.237,270.408 337.499,270.41C351.107,270.438 363.068,270.923 376.567,273.108C383.724,274.267 392.666,275.675 400.533,279.438C400.919,279.623 400.908,279.638 405.292,281.897C409.379,284.003 414.711,288.856 415.463,289.541C422.728,296.154 428.904,300.179 430.152,300.992C430.216,301.034 433.152,303.376 441.394,306.755C442.027,307.014 442.041,306.945 449.411,309.73C454.73,311.74 456.71,310.21 457.859,314.4C457.957,314.756 460.86,324.01 460.974,324.309C461.369,325.356 461.388,325.344 464.778,333.391C465.803,335.825 468.675,342.745 473.379,349.585C473.545,349.826 476.41,354.272 476.41,354.272C472.77,354.052 472.784,353.935 472.468,353.918C460.176,353.243 454.661,351.88 449.56,351.084C438.409,349.343 424.636,344.247 424.599,344.232C419.849,342.272 414.202,340.148 410.631,338.232C409.035,337.376 408.915,337.664 407.366,336.759C402.326,333.812 402.174,334.117 395.787,330.067C395.262,329.734 391.195,327.155 389.296,325.812C376.654,316.872 373.545,312.943 372.449,311.559C371.747,310.713 371.747,310.735 370.931,310.012C368.285,307.667 368.337,307.638 366.025,304.973C354.379,291.544 350.353,281.015 349.445,279.539C348.273,277.634 345.079,277.596 346.697,281.415C348.776,286.323 348.846,286.285 349.089,286.726C352.45,292.841 352.243,292.979 356.654,298.408C356.271,298.557 354.68,298.979 353.747,298.456C353.685,298.422 353.627,298.383 353.572,298.34C353.31,298.136 353.321,298.155 351.733,297.08C347.948,294.517 346.561,295.615 346.114,295.809Z" style="fill:rgb(187,167,217);"/>
        <path d="M595.478,166.067C598.953,168.39 602.315,175.778 610.475,178.573C621.132,182.223 629.879,176.557 643.649,185.172C645.823,186.533 645.771,186.594 647.509,188.484C649.715,190.883 649.401,191.181 649.671,191.261C649.909,191.331 650.437,191.11 650.5,191.084C651.132,190.821 651.039,190.69 651.682,190.422C651.855,190.811 653.208,193.835 653.694,195.345C653.748,195.512 654.586,198.648 655.222,195.356C655.733,192.707 655.986,192.798 657.246,190.406C657.425,190.409 659.483,190.446 659.483,190.446C660.049,190.176 661.97,187.105 665.747,184.987C682.966,175.329 688.958,184.971 708.052,175.072C708.177,175.827 708.39,175.755 708.514,176.5C708.531,176.6 708.672,177.451 708.5,177.77C708.407,177.943 708.164,177.444 707.976,177.5C707.133,177.751 707.215,178.748 703.192,184.317C702.832,184.814 700.078,188.627 698.169,190.108C695.335,192.307 695.341,192.295 692.359,194.272C689.726,196.018 688.043,196.203 686.342,197.225C683.565,198.894 683.163,198.094 679.33,200.12C676.714,201.503 676.44,200.91 671.663,203.81C665.059,207.818 662.688,213.341 662.241,214.382C660.748,217.859 660.633,217.832 660.234,221.436C659.912,223.978 659.934,223.965 659.393,226.472C658.731,229.538 658.521,229.473 657.914,232.549C656.972,237.321 656.849,237.283 654.106,244.352C652.318,248.013 652.394,248.028 652.228,248.339C651.851,249.046 651.917,249.057 651.604,249.78C650.529,250.055 650.554,250.057 649.458,250.329C647.086,250.916 647.415,251.502 643.526,255.524C625.689,273.964 617.103,283.546 614.241,285.079C610.998,286.815 594.548,284.941 586.747,286.024C586.3,285.654 586.177,285.806 585.23,284.77C584.504,283.976 584.479,284.03 583.673,283.313C582.823,282.556 582.755,282.671 581.824,282.021C582.457,281.711 582.325,281.237 584.437,281.217C587.459,281.188 587.444,281.285 597.487,281.176C603.406,281.112 603.965,281.371 606.657,279.789C611.281,277.072 613.293,280.18 615.964,275.763C616.101,275.536 616.804,274.375 616.548,272.494C616.2,269.927 612.825,268.812 612.498,268.546C612.111,268.23 611.873,267.756 611.485,267.44C610.866,267.606 610.246,267.773 609.627,267.939C604.07,267.97 603.311,268.191 598.563,267.316C598.286,267.265 596.289,266.897 595.558,265.5C595.434,265.264 595.668,264.936 595.544,264.699C605.573,264.741 609.576,262.549 616.372,260.125C620.779,258.552 624.979,255.374 627.577,253.61C629.788,252.109 636.801,246.026 640.155,239.296C641.735,236.126 647.103,225.884 643.002,217.712C642.906,217.521 642.865,217.549 641.569,215.452C640.804,214.214 638.86,212.402 635.665,210.257C634.718,209.622 630.37,207.545 628.622,207.04C625.609,206.17 625.546,206.395 622.677,205.085C620.5,204.091 619.825,204.123 616.635,202.248C615.645,201.666 610.479,199.394 604.173,191.771C601.409,188.428 601.658,188.276 599.668,184.405C598.323,181.788 596.566,174.589 596.334,173.527C595.913,171.597 595.172,166.542 595.478,166.067Z" style="fill:rgb(144,116,168);"/>
        <g transform="matrix(1,0,0,1,149.818182,-151.636364)">
            <path d="M348.936,330.493C348.896,335.495 349.375,336.662 345.614,337.88C343.102,338.694 341.126,339.102 340.613,342.52C339.967,346.827 344.833,347.856 341.743,351.67C335.749,359.066 334.336,357.849 332.747,357.03C331.74,356.51 329.894,354.494 325.52,356.542C321.829,358.27 325.335,363.741 319.512,363.927C312.528,364.149 312.032,364.013 311.407,363.841C307.794,362.845 309.537,358.111 306.427,356.629C300.368,353.741 299.506,358.334 296.459,357.657C295.844,357.52 295.66,357.479 290.569,352.434C286.187,348.092 291.727,346.236 291.67,343.499C291.658,342.939 290.796,340.217 289.542,339.434C286.208,337.355 283.315,338.771 283.153,333.503C282.992,328.284 282.85,325.589 285.488,324.471C288.851,323.044 289.466,323.593 291.139,320.332C293.042,316.621 289.73,316.486 289.081,313.567C288.558,311.217 291.704,309.208 294.404,306.415C297.978,302.718 299.118,305.425 302.51,306.473C302.542,306.482 303.692,307.206 306.602,305.697C310.141,303.863 307.55,298.33 313.473,298.062C322.14,297.67 321.813,299.187 321.857,299.241C323.407,301.154 322.195,303.928 325.397,305.7C328.313,307.314 328.572,307.139 331.593,305.703C335.563,303.815 336.035,304.4 338.747,307.292C341.334,310.051 343.896,311.614 341.915,314.734C340.764,316.545 339.44,317.632 341.37,321.571C343.027,324.953 348.4,322.904 348.876,327.459C348.901,327.7 348.88,327.684 348.936,330.493Z" style="fill:rgb(67,51,83);"/>
        </g>
        <g transform="matrix(1,0,0,1,149.818182,-151.636364)">
            <path d="M316.545,360.826C315.862,360.792 315.176,360.861 314.492,360.828C310.752,360.644 311.841,355.618 309.615,354.293C308.572,353.672 303.422,351.813 303.404,351.809C299.772,350.91 298.913,355.735 295.086,351.931C293.782,350.635 292.524,349.586 293.763,347.7C295.511,345.038 295.957,344.385 293.408,338.532C291.343,333.791 289.74,335.614 287.572,334.359C286.189,333.559 285.605,328.41 287.502,327.504C290.212,326.208 291.44,327.517 293.266,323.388C295.664,317.969 295.618,317.345 294.035,314.826C292.89,313.005 292.412,312.513 294.568,310.577C296.804,308.569 297.211,308.516 297.496,308.478C300.704,308.057 300.695,312.232 306.518,309.54C310.352,307.768 310.903,307.851 311.494,305.499C311.879,303.966 311.951,302.448 313.575,301.759C313.987,301.585 316.266,301.496 316.501,301.487C319.585,301.368 319.314,302.876 319.688,304.474C320.616,308.439 322.415,308.048 326.275,309.985C330.241,311.975 330.814,309.391 333.516,308.552C335.316,307.992 335.742,308.734 337.985,311.078C340.171,313.362 335.478,315.686 336.709,319.45C338.956,326.322 341.101,326.364 341.502,326.493C344.146,327.34 346.015,326.825 345.737,331.537C345.477,335.953 341.966,333.835 339.628,336.602C338.044,338.477 336.895,341.81 336.735,342.561C335.83,346.818 340.478,347.383 337.804,350.747C336.336,352.594 335.376,354.036 333.524,353.436C331.343,352.728 331.449,350.162 327.694,351.92C322.813,354.204 321.117,353.414 319.736,358.583C319.017,361.277 317.733,360.657 316.545,360.826Z" style="fill:rgb(76,147,129);"/>
        </g>
        <path d="M505.504,239.457C507.337,239.55 507.33,239.52 507.484,239.558C508.319,239.763 508.615,240.271 508.673,240.371C510.484,243.477 508.576,245.754 512.62,247.083C517.285,248.615 517.164,248.949 517.584,249.02C519.541,249.35 521.827,246.298 523.45,246.129C523.775,246.095 524.878,245.981 527.096,247.968C530.414,250.939 529.948,251.761 527.594,255.561C526.214,257.787 526.726,257.982 527.728,260.4C528.123,261.354 528.622,263.632 530.235,264.915C532.52,266.732 536.5,264.478 536.626,268.498C536.777,273.361 536.551,274.004 536.392,274.453C535.707,276.395 531.764,275.493 530.099,277.004C528.988,278.011 529.248,278.173 528.777,279.583C527.748,282.663 525.984,283.356 527.491,286.505C528.75,289.135 531.143,290.261 525.766,294.852C522.173,297.92 520.452,291.581 516.568,293.625C514.581,294.67 514.585,294.644 512.481,295.451C509.868,296.452 510.219,297.59 509.32,300.453C508.193,304.039 507.257,303.49 503.499,303.535C499.442,303.584 499.771,302.368 499.134,299.586C498.107,295.103 495.944,295.969 492.343,293.781C490.074,292.402 489.417,293.552 486.414,295.351C483.452,297.125 482.782,295.304 480.33,292.663C478.273,290.448 478.782,289.978 480.37,287.418C482.581,283.854 481.288,282.855 479.989,279.305C478.796,276.049 477.997,276.653 474.564,276.091C471.455,275.582 471.927,273.332 471.954,271.479C472.078,271.501 473.5,271.758 473.5,271.758C473.78,271.751 473.923,271.479 475.499,271.529C476.06,271.547 481.399,271.717 482.509,271.943C482.855,272.014 483.097,272.488 483.447,272.436C483.447,272.436 484.907,271.552 485.034,271.475C485.04,271.554 485.082,274.301 485.791,276.42C487.109,280.354 488.094,282.293 489.472,282.371C490.444,282.427 490.885,281.644 491.747,280.724C494.835,277.431 495.821,277.46 494.953,274.365C493.643,269.692 494.881,268.067 495.518,266.508C497.308,264.31 497.206,264.202 499.532,262.585C499.916,262.439 503.128,261.221 504.515,261.325C505.69,261.412 508.552,262.735 509.47,262.273C509.632,262.192 512.272,259.412 514.733,257.825C516.009,258.68 516.031,258.631 517.137,259.694C517.453,260.213 517.77,260.732 518.086,261.25C516.661,263.353 515.861,263.6 514.702,264.705C512.796,266.524 513.719,266.908 514.036,269.516C514.355,272.141 513.025,275.217 513.325,276.525C513.4,276.854 513.637,277.131 513.712,277.46C510.701,278.394 510.836,278.973 510.452,279.289C510.19,279.505 509.833,279.586 509.571,279.802C505.184,281.323 505.096,281.245 501.47,280.626C499.361,280.266 498.763,281.577 497.427,283.45C495.918,285.566 494.815,286.627 494.82,286.685C494.915,287.812 496.26,288.507 496.438,288.599C496.449,288.604 501.03,291.601 509.582,289.822C512.85,289.143 517.398,286.068 518.496,284.496C520.818,281.173 520.974,281.253 522.343,277.437C522.781,276.213 525.223,269.403 520.859,261.253C519.301,258.343 519.341,258.258 516.651,256.337C510.472,252.898 510.488,252.507 503.442,252.008C503.469,251.949 503.577,251.957 503.604,251.898C504.143,250.732 504.178,250.732 504.147,249.464C504.132,248.835 503.97,242.273 504.132,241.591C504.179,241.394 504.232,241.436 505.504,239.457Z" style="fill:rgb(221,111,117);"/>
        <g transform="matrix(1,0,0,1,149.818182,-151.636364)">
            <path d="M317.516,312.317C317.609,312.335 322.595,312.641 328.267,316.831C332.028,319.608 334.84,325.175 335.009,330.515C335.169,335.595 332.904,340.483 330.946,342.842C325.141,349.837 319.506,349.954 315.575,350.166C313.768,349.978 312.981,350.282 308.455,348.625C301.705,346.155 297.248,338.11 296.884,332.474C296.169,321.426 304.381,314.86 310.362,313.146C315.348,311.718 315.627,312.128 317.516,312.317Z" style="fill:rgb(66,50,81);"/>
        </g>
        <path d="M566.624,281.06C566.95,281.15 567.307,281.074 567.633,281.164C569.179,281.594 568.758,282.081 569.236,283.601C569.709,285.107 569.986,284.928 571.262,285.859C574.932,288.535 575.97,286.956 577.329,286.137C577.677,285.927 579.328,284.932 581.956,288.232C583.795,290.54 579.651,291.244 580.544,294.483C581.407,297.617 584.603,298.088 585.458,298.56C587.236,299.542 586.675,302.203 586.606,302.526C586.101,304.921 584.309,303.37 581.748,306.69C578.885,310.399 581.385,311.324 582.074,312.708C582.879,314.325 579.771,317.656 578.512,317.698C576.476,317.765 575.696,314.474 571.634,316.756C569.472,317.972 569.574,318.21 568.992,320.635C568.979,320.69 569.08,322.786 565.499,322.59C561.813,322.389 564.061,319.127 561.733,317.192C560.909,316.508 557.578,315.411 557.51,315.401C554.741,314.99 553.83,318.933 551.262,315.674C549.146,312.989 551.025,312.147 551.353,310.468C551.769,308.339 549.739,305.622 549.539,305.454C548.406,304.503 545.836,305.537 545.671,302.486C545.499,299.297 546.133,298.654 547.449,298.3C549.024,297.876 550.078,298.463 551.243,294.412C552.212,291.041 547.687,289.854 551.663,286.689C554.286,284.602 554.774,286.628 556.59,287.017C557.34,287.178 562.039,286.521 562.838,283.604C563.306,281.898 562.839,281.356 564.548,280.894C564.548,280.894 566.458,281.047 566.624,281.06Z" style="fill:rgb(229,130,134);"/>
        <path d="M447.526,227.864C447.432,227.8 446.743,226.575 444.521,226.321C436.504,225.405 436.528,225.261 428.475,224.829C423.963,224.588 423.997,224.109 419.487,224.297C414.477,224.507 414.497,223.935 409.473,224.052C400.704,224.258 387.418,224.331 385.5,224.342C379.486,224.375 379.472,223.726 373.5,224.497C372.064,224.683 369.491,224.195 358.44,228.322C355.886,229.276 348.271,233.5 344.635,237.622C338.012,245.133 337.699,247.959 336.008,253.248C335.873,253.669 335.971,253.687 334.826,258.645C334.793,258.791 333.929,263.585 333.276,263.983C333.007,263.596 332.102,263.825 332.314,261.508C332.552,258.899 332.954,256.804 333.031,256.398C334.123,250.703 334.738,247.935 337.676,241.577C339.319,238.023 343.705,232.883 345.837,230.865C350.826,226.14 356.517,223.34 358.532,222.588C361.552,221.46 362.433,220.141 372.457,219.087C377.691,218.537 403.918,218.32 405.501,218.326C407.837,218.335 423.054,219.183 425.507,219.417C435.121,220.333 437.726,220.02 443.527,221.394C446.322,222.057 462.695,223.973 471.472,226.586C476.53,228.092 476.638,227.633 480.412,228.838C487.903,231.228 487.964,231.004 488.605,231.24C491.574,232.332 491.529,232.401 494.559,233.355C496.941,234.104 496.21,235.252 495.388,236.421L494.905,236.952C494.757,236.875 487.856,235.383 487.586,235.377C485.537,234.53 485.587,234.416 483.426,233.98C475.43,232.366 475.655,231.422 467.602,230.125C463.934,229.535 460.87,228.502 455.461,227.993C454.218,227.876 453.81,228.202 453.58,228.244C453.25,228.304 452.905,228.246 452.574,228.306C450.87,227.877 450.905,227.753 449.487,227.681C448.332,227.622 447.61,227.856 447.526,227.864Z" style="fill:rgb(203,187,233);"/>
        <path d="M624.132,307.382C624.052,307.523 614.585,315.296 613.825,315.913C612.89,316.671 608.213,321.628 590.632,331.771C590.394,331.908 584.818,334.819 584.312,335.083C574.342,340.288 564.11,343.53 561.519,344.547C558.606,345.691 541.052,350.311 534.45,351.138C531.558,351.501 528.519,352.752 527.525,350.488C527.178,349.699 527.543,349.572 523.81,340.373C521.941,335.768 519.808,333.653 520.659,332.62C521.49,331.612 521.783,333.08 529.492,333.118C532.976,333.136 558.523,332.926 567.445,330.313C570.51,329.415 573.689,329.262 579.627,326.831C580.748,326.372 582.368,326.265 582.448,326.569C582.453,326.585 578.562,329.382 569.526,332.578C565.936,333.848 566.013,334.029 562.383,335.165C554.076,337.764 554.172,338.142 539.391,341.02C530.828,342.687 530.744,342.776 530.223,343.324C529.893,343.671 529.475,345.864 532.503,345.567C538.071,345.019 537.961,344.476 547.549,342.756C548.088,342.659 559.137,339.962 563.447,338.359C565.34,337.655 566.017,337.857 572.35,335.153C575.026,334.011 575.038,334.095 577.691,332.907C586.273,329.064 586.09,328.717 589.663,326.82C593.855,324.594 602.793,319.145 604.461,318.421C608.733,316.564 622.175,306.917 622.541,306.619C622.65,306.53 626.311,303.547 624.132,307.382Z" style="fill:rgb(143,115,182);"/>
        <g transform="matrix(1,0,0,1,149.818182,-151.636364)">
            <path d="M315.494,347.039C315.461,347.035 306.061,346.813 302.25,338.621C302.093,338.284 296.678,328.797 305.114,320.158C311.269,313.855 320,315.442 323.439,317.6C331.658,322.757 332.131,331.778 331.039,335.379C330.383,337.544 327.17,344.103 321.595,345.803C318.611,346.713 318.604,346.625 315.494,347.039Z" style="fill:rgb(231,214,196);"/>
        </g>
        <path d="M388.59,315.41C384.772,312.233 384.828,312.19 381.25,308.758C371.729,299.621 364.855,286.993 362.726,282.397C362.608,282.142 361.222,279.148 363.527,278.973C365.552,278.819 365.915,282.134 370.038,288.777C375.866,298.165 380.208,302.681 381.246,303.76C394.871,317.934 406.414,323.663 407.545,324.414C414.5,329.029 427.504,334.278 428.454,334.638C436.238,337.591 437.38,337.598 439.576,338.285C445.027,339.991 445.079,339.728 450.579,341.264C458.977,343.609 459.399,342.577 464.339,343.885C465.934,344.307 466.459,347.119 464.474,347.323C463.115,347.462 450.285,345.036 448.49,344.543C437.688,341.574 432.472,340.737 415.393,332.747C411.556,330.952 411.705,330.707 410.252,329.99C408.917,329.332 408.868,329.436 404.74,327.067C400.579,324.679 398.595,322.999 396.42,321.62C392.487,319.129 391.22,317.637 388.59,315.41Z" style="fill:rgb(73,44,93);"/>
        <path d="M572.519,262.463C584.469,264.532 586.439,265.108 595.544,264.699C595.668,264.936 595.434,265.264 595.558,265.5C596.289,266.897 598.286,267.265 598.563,267.316C603.311,268.191 604.07,267.97 609.627,267.939C609.561,268.018 609.411,267.983 609.345,268.062C609.263,268.161 608.864,268.64 608.427,269.382C608.298,269.601 608.285,269.877 608.149,270.092C608.016,270.3 607.788,270.433 607.635,270.627C606.183,272.46 606.786,274.375 606.468,275.486C606.104,276.754 603.48,277.636 602.554,277.772C602.198,277.825 585.428,278.05 583.501,278.028C581.43,278.004 581.359,278.034 580.114,279.144C580.114,279.144 578.812,280.002 578.699,280.076C575.655,278.046 575.047,277.476 574.763,277.209C573.604,276.121 572.7,275.771 572.585,275.691C572.616,274.794 572.897,266.589 572.569,264.476C572.423,263.541 572.533,263.009 572.519,262.463Z" style="fill:rgb(143,110,166);"/>
        <path d="M708.052,175.072C710.194,173.151 712.979,166.36 712.979,166.36C712.979,166.36 713.112,170.724 713.115,173.469C713.117,175.217 710.869,181.566 709.198,184.309C708.021,186.239 701.414,202.077 681.561,206.758C678.104,207.573 673.901,209.756 672.645,210.677C671.273,211.684 668.058,213.062 663.785,218.797C662.653,220.315 660.942,221.128 660.234,221.436C660.633,217.832 660.748,217.859 662.241,214.382C662.688,213.341 665.059,207.818 671.663,203.81C676.44,200.91 676.714,201.503 679.33,200.12C683.163,198.094 683.565,198.894 686.342,197.225C688.043,196.203 689.726,196.018 692.359,194.272C695.341,192.295 695.335,192.307 698.169,190.108C700.078,188.627 702.832,184.814 703.192,184.317C707.215,178.748 708.177,175.827 708.052,175.072Z" style="fill:rgb(95,64,130);"/>
        <path d="M517.327,300.045C517.167,300.395 517.234,300.822 517.074,301.172C516.993,301.349 516.702,301.375 516.636,301.558C516.555,301.779 516.632,301.77 516.28,304.475C515.811,308.082 517.109,308.602 514.478,311.481C514.302,311.674 512.753,312.926 512.515,315.502C512.281,318.035 513.405,320.063 514.416,320.617C516.715,321.878 522.776,322.893 523.17,316.465C523.437,312.112 520.69,312.393 520.382,308.516C520.194,306.148 520.461,306.068 520.414,301.549C523.857,301.899 523.806,302.238 526.415,304.49C526.359,306.17 527.782,309.671 527.884,328.052C525.343,328.245 519.951,327.3 518.385,326.914C515.574,326.22 512.403,322.229 506.727,319.062C506.07,318.695 500.093,315.359 498.503,314.493C495.306,312.753 493.591,312.856 493.5,312.777C493.135,312.463 492.144,310.92 491.882,310.561C491.985,308.003 491.921,308.018 491.864,305.472C491.831,303.967 491.451,302.811 491.598,302.5C491.853,301.962 492.681,301.855 492.935,301.317C493.783,302.745 493.627,302.795 493.976,304.441C494.921,308.9 495.895,308.83 500.465,308.878C511.483,308.995 512.532,308.792 513.66,304.559C514.422,301.701 515.178,301.396 515.207,301.35C515.365,301.094 515.366,300.767 515.491,300.493C515.816,299.781 515.839,299.643 516.61,299.733C516.869,299.764 517.068,300.015 517.327,300.045Z" style="fill:rgb(90,61,118);"/>
        <path d="M555.149,300.483C555.213,300.015 555.688,296.55 556.962,294.854C558.045,293.412 559.274,292.66 559.51,292.515C568.747,286.859 574.712,294.878 575.51,296.495C579.192,303.963 573.726,309.695 571.606,310.736C568.701,312.163 566.922,312.365 566.495,312.414C562.891,312.824 559.524,310.601 558.438,309.559C554.629,305.902 555.151,300.592 555.149,300.483Z" style="fill:rgb(78,36,72);"/>
        <path d="M419.87,322.067C417.255,320.648 417.196,320.789 414.617,319.31C412.789,318.261 404.429,313.465 393.785,303.193C387.502,297.13 380.163,285.299 379.715,284.393C378.295,281.517 380.826,279.196 382.766,282.348C384.067,284.462 383.944,284.52 385.271,286.633C391.067,295.855 394.707,299.259 399.381,303.626C410.76,314.257 424.473,320.781 426.497,321.507C430.951,323.103 433.976,324.461 435.661,325.04C442.544,327.402 442.42,327.729 449.5,329.502C457.891,331.602 457.924,331.466 458.448,331.647C460.55,332.377 459.641,334.541 459.605,334.583C459.18,335.084 458.759,335.581 451.436,333.727C443.364,331.684 442.095,331.258 441.299,330.99C434.772,328.796 434.74,328.917 432.354,327.828C428.851,326.23 428.59,326.825 419.87,322.067Z" style="fill:rgb(75,47,96);"/>
        <path d="M516.651,256.337C519.341,258.258 519.301,258.343 520.859,261.253C525.223,269.403 522.781,276.213 522.343,277.437C520.974,281.253 520.818,281.173 518.496,284.496C517.398,286.068 512.85,289.143 509.582,289.822C501.03,291.601 496.449,288.604 496.438,288.599C496.26,288.507 494.915,287.812 494.82,286.685C494.815,286.627 495.918,285.566 497.427,283.45C498.763,281.577 499.361,280.266 501.47,280.626C505.096,281.245 505.184,281.323 509.571,279.802C509.806,280.165 510.15,280.449 510.385,280.812C510.496,280.983 510.486,281.214 510.597,281.385C510.922,281.888 514.336,285.538 514.55,285.452C514.894,285.316 515.448,284.155 516.317,283.446C516.732,283.108 517.325,282.917 517.571,282.442C517.645,282.301 516.907,281.71 514.582,278.459C514.194,277.916 514.154,277.967 513.712,277.46C513.637,277.131 513.4,276.854 513.325,276.525C513.025,275.217 514.355,272.141 514.036,269.516C513.719,266.908 512.796,266.524 514.702,264.705C515.861,263.6 516.661,263.353 518.086,261.25C517.77,260.732 517.453,260.213 517.137,259.694C516.031,258.631 516.009,258.68 514.733,257.825C515.372,257.329 516.012,256.833 516.651,256.337Z" style="fill:rgb(71,38,81);"/>
        <path d="M505.504,239.457C504.232,241.436 504.179,241.394 504.132,241.591C503.97,242.273 504.132,248.835 504.147,249.464C504.178,250.732 504.143,250.732 503.604,251.898C503.577,251.957 503.469,251.949 503.442,252.008C496.755,252.591 493.601,254.066 489.196,259.251C485.577,264.12 485.164,266.203 485.034,271.475C484.907,271.552 483.447,272.436 483.447,272.436C483.097,272.488 482.855,272.014 482.509,271.943C481.399,271.717 476.06,271.547 475.499,271.529C473.923,271.479 473.78,271.751 473.5,271.758C473.5,271.758 472.078,271.501 471.954,271.479C472.037,268.698 472.024,268.715 472.044,268.476C472.274,265.623 473.782,266.163 477.506,265.562C480.332,265.106 479.856,264.268 480.653,261.537C481.186,259.708 482.529,258.659 481.545,256.475C480.906,255.057 480.751,255.159 480.051,253.766C477.377,248.443 481.739,244.388 486.624,247.286C490.26,249.444 490.649,249.262 491.413,249.114C493.024,248.802 497.094,246.859 497.573,246.631C499.76,245.587 499.238,241.389 500.051,240.219C501.012,238.838 502.232,239.232 503.524,239.413C505.026,239.623 505.109,239.448 505.504,239.457Z" style="fill:rgb(241,168,162);"/>
        <path d="M546.73,254.277C547.422,254.393 547.97,254.141 552.676,256.132C557.977,258.376 564.844,259.982 571.636,262.148C569.559,263.33 569.523,263.259 569.397,263.422C569.385,263.439 568.877,265.243 568.98,267.503C569.002,267.988 568.756,274.081 568.664,274.372C568.518,274.834 568.536,275.338 568.39,275.8C559.736,275.834 559.527,276.566 557.881,278.84C557.092,279.928 556.839,279.817 555.635,279.218C554.499,278.653 554.541,278.611 553.391,278.094C553.389,277.958 553.647,277.911 553.645,277.775C553.642,277.667 553.631,277.044 553.36,276.461C552.295,274.167 548.614,275.205 543.721,274.994C543.721,274.994 542.222,275.298 542.092,275.324C542.055,274.989 542.16,274.649 542.122,274.314C542.101,274.119 541.818,273.759 541.898,272.552C542.07,269.915 542.872,270.102 545.508,269.999C551.381,269.772 551.993,270.26 552.428,270.606C552.507,270.669 555.233,274.684 559.52,273.575C564.872,272.191 565.633,264.863 559.373,262.878C555.819,261.75 553.514,264.851 553.198,265.277C551.594,267.435 551.148,266.828 548.466,266.81C546.982,266.8 547.005,266.752 545.534,266.694C545.766,264.742 545.729,264.747 545.785,264.586C545.819,264.488 546.078,258.495 546.078,258.488C546.007,256.324 546.144,256.344 546.73,254.277Z" style="fill:rgb(147,111,161);"/>
        <path d="M640.325,266.334C640.799,266.605 641.028,267.201 641.501,267.472C641.879,267.689 642.905,267.073 644.947,269.054C646.384,270.449 646.197,270.589 646.782,272.509C646.624,273.149 646.98,273.279 645.579,275.568C644.991,276.53 644.778,276.322 644.573,276.583C644.408,276.792 644.439,277.114 644.275,277.322C643.965,277.336 643.683,277.079 643.373,277.093C643.171,277.102 643.186,277.295 641.518,277.589C639.092,278.017 638.966,278.044 634.672,282.661C623.042,295.166 621.736,296.415 620.549,297.55C616.604,301.323 616.181,300.892 610.482,301.115C606.107,301.287 605.751,302.601 603.487,303.463C598.283,305.443 596.886,300.228 596.602,299.529C597.513,294.139 598.818,293.625 604.476,293.643C605.353,294.749 605.385,294.701 606.141,295.895C607.066,297.359 608.152,297.072 612.513,296.984C616.735,296.899 616.696,296.231 622.333,290.337C634.056,278.08 633.786,277.835 634.825,276.79C638.325,273.274 636.075,272.614 636.067,271.264C636.065,270.975 636.585,270.855 636.583,270.566C636.762,270.382 636.788,270.084 636.967,269.901C637.127,269.736 637.401,269.718 637.565,269.557C637.742,269.385 637.786,269.107 637.959,268.931C638.469,268.413 638.611,268.596 639.09,268.049C639.601,267.465 639.398,267.355 639.847,266.738C639.969,266.569 640.203,266.503 640.325,266.334Z" style="fill:rgb(131,42,67);"/>
        <path d="M644.275,277.322C644.131,277.741 644.135,278.202 643.991,278.621C643.805,279.162 638.812,285.925 637.403,287.392C636.911,287.903 636.912,287.884 636.417,288.401C631.535,293.504 631.845,293.821 626.309,298.194C625.716,298.662 625.679,298.595 618.631,303.694C614.002,307.044 612.011,308.041 611.396,308.349C610.373,308.861 610.469,309.022 609.369,309.367C608.038,309.785 608.143,309.98 607.34,310.381C607.286,310.257 607.808,307.827 603.492,307.78C600.48,307.748 600.498,307.847 597.476,307.791C597.042,307.355 596.934,306.662 596.5,306.226C595.74,305.462 595.585,305.898 594.5,305.872C594.297,305.867 592.123,305.816 591.983,305.577C591.693,305.081 591.816,303.618 591.831,303.448C591.982,301.644 591.741,301.647 591.794,301.5C591.968,301.017 592.544,300.751 592.719,300.267C594.701,300.097 594.678,300.059 596.602,299.529C596.886,300.228 598.283,305.443 603.487,303.463C605.751,302.601 606.107,301.287 610.482,301.115C616.181,300.892 616.604,301.323 620.549,297.55C621.736,296.415 623.042,295.166 634.672,282.661C638.966,278.044 639.092,278.017 641.518,277.589C643.186,277.295 643.171,277.102 643.373,277.093C643.683,277.079 643.965,277.336 644.275,277.322Z" style="fill:rgb(88,62,127);"/>
        <path d="M346.114,295.809C346.561,295.615 347.948,294.517 351.733,297.08C353.321,298.155 356.246,298.566 356.654,298.408C358.472,300.578 358.321,300.666 360.061,302.911C365.028,309.318 373.169,317.79 381.654,324.309C382.199,324.727 386.624,328.127 388.648,329.288C395.079,332.975 400.972,336.459 405.437,339.431C405.132,339.453 404.852,339.633 404.547,339.655C402.397,339.806 397.9,337.029 395.394,335.819C391.343,333.864 391.523,333.559 387.46,331.592C386.583,331.167 379.597,326.947 378.612,326.304C370.522,321.03 369.32,320.037 368.569,319.416C364.373,315.948 355.214,308.672 349.527,300.48C349.427,300.336 349.425,300.367 348.167,298.766C346.618,296.796 346.732,296.744 346.114,295.809Z" style="fill:rgb(147,118,181);"/>
        <g transform="matrix(1,0,0,1,-17.454545,9.818182)">
            <path d="M720.158,221.601C718.603,216.438 718.74,216.415 716.947,211.329C716.754,210.782 715.016,205.85 714.598,204.47C714.522,204.217 713.785,201.782 715.389,201.265C718.112,200.387 718.945,204.297 718.946,204.299C723.307,216.073 723.858,219.316 725.131,224.573C728.433,238.203 727.65,238.652 729.182,239.888C729.76,240.354 729.804,240.247 730.385,240.675C730.741,240.938 732.935,242.554 733.077,245.512C733.429,252.847 723.725,254.654 721.31,248.572C719.205,243.273 723.563,241.938 724.079,239.467C724.499,237.456 720.545,223.012 720.158,221.601Z" style="fill:rgb(190,71,60);"/>
        </g>
        <path d="M651.604,249.78C652.118,250.023 651.993,250.181 652.503,250.423C652.576,250.457 654.008,253.535 653.835,253.745C653.358,254.322 653.303,254.195 651.525,254.169C649.136,254.134 645.747,256.844 645.333,257.14C645.109,257.301 634.451,269.316 633.911,269.895C631.236,272.769 627.312,277.594 626.952,277.866C626.715,278.046 616.719,287.266 616.467,287.443C616.221,287.616 608.954,289.037 608.715,289.219C608.568,289.331 607.549,289.348 600.493,289.104C591.532,288.794 591.49,288.873 588.769,289.583C588.476,289.136 588.169,289.321 586.747,286.024C594.548,284.941 610.998,286.815 614.241,285.079C617.103,283.546 625.689,273.964 643.526,255.524C647.415,251.502 647.086,250.916 649.458,250.329C650.554,250.057 650.529,250.055 651.604,249.78Z" style="fill:rgb(138,49,71);"/>
        <path d="M534.649,301.43C534.702,302.413 534.756,302.403 534.764,304.483C534.795,312.739 534.729,312.752 534.059,315.382C532.576,321.197 537.501,323.371 540.324,322.088C543.238,320.764 543.312,317.564 543.322,317.523C543.697,317.656 544.125,317.59 544.5,317.723C545.791,318.184 548.323,320.779 551.562,323.417C552.173,323.704 554.262,324.125 554.682,324.213C555.437,324.37 555.41,326.466 554.635,326.719C553.216,327.181 544.204,327.376 538.507,327.748C537.946,327.785 530.967,328.334 527.899,328.073C528.379,322.824 529.082,305.857 529.686,304.575C530.049,303.804 532.297,301.338 533.561,301.262C533.927,301.24 534.283,301.452 534.649,301.43Z" style="fill:rgb(99,66,123);"/>
        <path d="M703.464,172.371C707.391,171.254 712.758,166.083 712.999,166.355C712.999,166.355 710.194,173.151 708.052,175.072C688.958,184.971 682.966,175.329 665.747,184.987C661.97,187.105 660.049,190.176 659.483,190.446C659.483,190.446 655.211,196.086 655.032,196.083C656.745,187.078 661.331,184.161 665.569,180.582C668.084,178.459 670.919,177.47 671.426,177.293C679.219,174.574 683.571,175.131 684.498,175.125C696.726,175.043 697.097,174.183 703.464,172.371Z" style="fill:rgb(201,185,234);"/>
        <path d="M598.358,172.07C598.107,171.689 594.943,166.677 595.506,166.048C595.635,165.904 598.47,169.149 598.612,169.281C600.323,170.89 603.194,171.912 603.626,172.066C612.857,175.353 620.034,175.027 622.51,175.055C627.601,175.113 627.586,175.154 632.598,176.022C644.207,178.033 649.89,183.838 653.987,196.171C653.345,196.438 649.909,191.331 649.671,191.261C649.401,191.181 649.715,190.883 647.509,188.484C645.771,186.594 645.823,186.533 643.649,185.172C629.879,176.557 621.132,182.223 610.475,178.573C602.315,175.778 601.832,174.394 598.358,172.07Z" style="fill:rgb(200,186,231);"/>
        <path d="M443.659,319.192C438.433,317.74 438.591,317.34 433.471,315.592C432.358,315.213 416.186,308.142 405.876,297.127C404.391,295.54 399.639,289.385 399.384,287.514C399.093,285.374 401.464,284.91 402.531,286.475C402.574,286.537 403.163,287.68 404.469,289.529C405.3,290.705 405.481,290.551 407.1,292.786C410.822,297.926 419.095,305.213 431.422,310.675C434.007,311.82 434.687,312.393 438.44,313.68C441.447,314.71 441.364,314.92 444.431,315.747C448.555,316.861 448.469,317.103 452.585,318.212C454.062,318.61 454.044,318.696 455.083,319.827C454.819,320.344 454.556,320.861 454.293,321.378C453.916,321.482 453.851,322.217 451.47,321.686C447.432,320.787 446.876,320.313 443.659,319.192Z" style="fill:rgb(75,48,97);"/>
        <g transform="matrix(1,0,0,1,149.818182,-151.636364)">
            <path d="M315.498,342.566C312.992,342.19 312.907,342.386 310.753,341.067C309.246,340.143 308.249,339.044 308.062,338.837C301.41,331.498 306.988,322.464 309.523,321.785C310.139,321.62 311.298,322.489 311.455,323.512C311.804,325.778 306.559,330.286 310.644,335.369C313.902,339.423 319.99,338.139 321.511,335.508C321.74,335.113 323.466,332.696 322.645,329.47C321.327,324.285 315.904,324.305 315.777,321.503C315.649,318.673 320.93,320.686 322.363,321.709C328.802,326.306 328.74,336.785 322.573,340.61C319.107,342.76 317.911,342.526 315.498,342.566Z" style="fill:rgb(84,180,177);"/>
        </g>
        <path d="M474.55,246.715C474.472,246.967 474.714,247.248 474.637,247.5C474.554,247.768 474.518,247.884 472.703,250.429C472.245,250.325 471.934,249.838 471.475,249.735C470.204,249.449 468.692,250.793 464.61,247.369C461.928,245.12 462.01,244.583 458.502,244.593C448.484,244.625 439.613,244.181 438.297,245.175C437.131,246.056 435.214,249.344 431.419,247.663C426.586,245.524 428.149,238.473 433.5,238.477C437.267,238.48 436.231,241.733 440.503,241.716C446.154,241.692 459.851,241.099 462.659,242.01C465.549,242.947 466.414,246.523 470.49,246.673C470.814,246.685 470.809,246.661 474.55,246.715Z" style="fill:rgb(132,40,61);"/>
        <g transform="matrix(1.30387,0,0,1.535161,-184.773179,-158.614424)">
            <path d="M636.583,270.566C636.585,270.855 638.325,273.274 634.825,276.79C633.786,277.835 634.056,278.08 622.333,290.337C616.696,296.231 616.735,296.899 612.513,296.984C608.152,297.072 607.066,297.359 606.141,295.895C605.385,294.701 606.19,295.697 605.313,294.59C608.396,294.601 613.141,294.045 636.583,270.566Z" style="fill:rgb(88,60,126);"/>
        </g>
        <path d="M503.442,252.008C510.488,252.507 510.472,252.898 516.651,256.337C516.012,256.833 515.372,257.329 514.733,257.825C512.272,259.412 509.632,262.192 509.47,262.273C508.552,262.735 505.69,261.412 504.515,261.325C503.128,261.221 499.916,262.439 499.532,262.585C499.149,262.226 498.883,261.756 498.5,261.397C498.075,260.998 494.911,258.965 494.383,258.742C494.101,258.624 493.769,258.662 493.488,258.544C492.971,258.942 492.454,259.341 491.937,259.74C491.621,260.24 491.304,260.74 490.987,261.239C490.39,260.577 489.793,259.914 489.196,259.251C493.601,254.066 496.755,252.591 503.442,252.008Z" style="fill:rgb(69,41,87);"/>
        <path d="M427.881,278.547C428.275,277.867 428.026,277.69 430.235,275.279C432.151,273.188 437.262,270.733 440.46,271.653C444.256,272.744 446.337,273.719 448.124,277.621C448.208,277.803 449.228,280.029 447.506,280.051C447.123,280.056 446.826,279.698 446.504,279.491C445.37,278.763 444.851,278.188 444.485,279.486C444.163,280.627 443.829,283.383 441.357,285.315C439.599,286.69 434.4,287.004 433.421,282.518C433.066,280.891 433.678,277.868 430.556,278.932C429.525,279.283 429.525,279.733 428.624,279.27C428.316,279.113 428.188,278.705 427.881,278.547Z" style="fill:rgb(69,41,89);"/>
        <path d="M609.627,267.939C610.246,267.773 610.866,267.606 611.485,267.44C611.873,267.756 612.111,268.23 612.498,268.546C612.825,268.812 616.2,269.927 616.548,272.494C616.804,274.375 616.101,275.536 615.964,275.763C613.293,280.18 611.281,277.072 606.657,279.789C603.965,281.371 603.406,281.112 597.487,281.176C587.444,281.285 587.459,281.188 584.437,281.217C582.325,281.237 582.457,281.711 581.824,282.021C581.667,281.907 581.622,281.677 581.465,281.562C581.232,281.392 580.939,281.323 580.683,281.189C580.015,280.838 580.203,280.6 579.549,280.242C579.296,280.103 578.952,280.215 578.699,280.076C578.812,280.002 580.114,279.144 580.114,279.144C581.359,278.034 581.43,278.004 583.501,278.028C585.428,278.05 602.198,277.825 602.554,277.772C603.48,277.636 606.104,276.754 606.468,275.486C606.786,274.375 606.183,272.46 607.635,270.627C607.788,270.433 608.016,270.3 608.149,270.092C608.285,269.877 608.298,269.601 608.427,269.382C608.864,268.64 609.263,268.161 609.345,268.062C609.411,267.983 609.561,268.018 609.627,267.939Z" style="fill:rgb(134,47,67);"/>
        <path d="M447.526,227.864C447.61,227.856 448.332,227.622 449.487,227.681C450.905,227.753 450.87,227.877 452.574,228.306C452.818,228.774 453.162,229.185 453.407,229.654C453.525,229.879 453.662,231.303 456.499,231.32C461.116,231.348 461.107,231.084 461.506,231.124C461.849,231.158 462.159,231.361 462.5,231.407C462.83,231.452 463.169,231.349 463.5,231.392C463.843,231.435 464.164,231.581 464.5,231.663C465.178,231.829 465.203,231.791 465.686,232.31C466.906,233.623 466.935,233.567 468.274,234.737C469.344,235.672 469.333,235.649 470.419,236.59C473.977,239.673 479.773,237.429 482.447,238.691C482.839,238.876 483.171,239.175 483.563,239.36C482.943,239.89 479.857,242.488 479.692,242.644C479.465,242.359 479.569,241.893 479.342,241.608C478.165,240.131 473.4,243.596 467.539,238.452C463.971,235.321 464.238,234.395 460.5,234.406C453.674,234.425 453.614,235.109 452.814,235.865C452.593,236.073 450.932,237.644 449.519,237.749C448.068,237.856 443.381,236.418 444.624,231.539C444.94,230.299 445.123,230.391 447.526,227.864Z" style="fill:rgb(132,42,62);"/>
        <path d="M560.299,296.325C561.461,295.248 561.336,295.088 562.526,294.55C569.356,291.464 574.875,298.505 572.691,304.589C570.356,311.089 558.272,310.479 558.553,301.504C558.642,298.685 558.662,298.614 560.299,296.325Z" style="fill:rgb(211,109,119);"/>
        <path d="M489.196,259.251C489.793,259.914 490.39,260.577 490.987,261.239C492.578,264.916 494.342,264.799 495.051,265.5C495.315,265.76 495.255,266.248 495.518,266.508C494.881,268.067 493.643,269.692 494.953,274.365C495.821,277.46 494.835,277.431 491.747,280.724C490.885,281.644 490.444,282.427 489.472,282.371C488.094,282.293 487.109,280.354 485.791,276.42C485.082,274.301 485.04,271.554 485.034,271.475C485.164,266.203 485.577,264.12 489.196,259.251Z" style="fill:rgb(68,42,89);"/>
        <path d="M452.574,228.306C452.905,228.246 453.25,228.304 453.58,228.244C453.81,228.202 454.218,227.876 455.461,227.993C460.87,228.502 463.934,229.535 467.602,230.125C475.655,231.422 475.43,232.366 483.426,233.98C485.587,234.416 491.525,236.198 494.911,236.938C492.296,238.309 486.323,241.012 483.563,239.36C483.171,239.175 482.839,238.876 482.447,238.691C479.773,237.429 473.977,239.673 470.419,236.59C469.333,235.649 469.344,235.672 468.274,234.737C466.935,233.567 466.906,233.623 465.686,232.31C465.203,231.791 465.178,231.829 464.5,231.663C464.164,231.581 461.116,231.348 456.499,231.32C453.662,231.303 453.525,229.879 453.407,229.654C453.162,229.185 452.818,228.774 452.574,228.306Z" style="fill:rgb(142,109,161);"/>
        <path d="M617.574,286.606C617.275,287.027 611.239,291.493 610.28,292.024C607.574,293.524 607.559,293.654 604.476,293.643C598.818,293.625 597.513,294.139 596.602,299.529C594.678,300.059 594.701,300.097 592.719,300.267C591.194,298.684 591.565,298.471 590.873,296.402C590.223,294.464 589.186,294.194 588.913,293.318C588.603,292.323 588.751,292.319 588.769,289.583C591.853,288.509 596.613,289.083 600.493,289.104C604.631,289.126 605.772,289.285 612.653,288.045C612.957,287.991 617.212,286.88 617.574,286.606Z" style="fill:rgb(142,107,161);"/>
        <path d="M473.227,253.505C473.336,253.662 474.585,255.471 474.585,255.471C474.681,256.121 474.431,256.793 474.527,257.443C465.537,257.565 454.796,257.037 453.573,257.661C451.895,258.516 450.061,262.412 445.513,259.483C442.385,257.469 443.601,250.065 449.566,251.146C452.054,251.597 452.509,253.661 454.413,253.928C455.418,254.068 472.238,254.302 472.397,254.22C472.446,254.194 473.11,253.606 473.227,253.505Z" style="fill:rgb(138,40,61);"/>
        <path d="M517.327,300.045C517.866,300.158 517.857,299.842 518.4,299.956C518.496,299.976 518.53,299.983 519.499,300.501C520.47,301.019 520.181,301.282 520.414,301.549C520.461,306.068 520.194,306.148 520.382,308.516C520.69,312.393 523.437,312.112 523.17,316.465C522.776,322.893 516.715,321.878 514.416,320.617C513.405,320.063 512.281,318.035 512.515,315.502C512.753,312.926 514.302,311.674 514.478,311.481C517.109,308.602 515.811,308.082 516.28,304.475C516.632,301.77 516.555,301.779 516.636,301.558C516.702,301.375 516.993,301.349 517.074,301.172C517.234,300.822 517.167,300.395 517.327,300.045Z" style="fill:rgb(127,45,72);"/>
        <path d="M536.442,291.451C537.06,291.489 539.021,291.594 539.326,291.802C539.519,291.934 539.53,292.233 539.692,292.402C540.052,292.78 540.154,292.634 540.5,293.034C541.057,293.676 540.888,293.782 541.442,294.421C540.969,294.518 541.02,294.729 539.679,294.78C537.94,294.847 538.189,295.391 537.374,296.434C537.259,296.582 537.056,296.646 536.94,296.794C536.743,296.923 534.469,298.403 534.469,298.403C533.227,299.623 533.908,299.863 534.649,301.43C534.283,301.452 533.927,301.24 533.561,301.262C532.297,301.338 530.049,303.804 529.686,304.575C529.082,305.857 529.813,319.53 529.717,324.8C529.684,326.617 528.799,327.921 528.43,328.013C527.332,328.289 526.788,327.424 526.708,327.297C526.631,327.175 526.688,327.166 526.43,325.506C526.328,307.125 526.359,306.17 526.415,304.49C526.753,303.093 526.222,302.62 531.688,297.68C533.102,296.402 533.058,296.365 533.976,294.711C534.732,293.348 536.092,292.081 536.099,292.073C536.244,291.886 536.297,291.638 536.442,291.451Z" style="fill:rgb(206,104,101);"/>
        <path d="M670.591,236.784C671.166,236.553 684.867,236.113 684.999,238.48C685.148,241.141 672.342,240.755 670.56,240.315C668.66,239.846 668.613,237.58 670.591,236.784Z" style="fill:rgb(177,69,52);"/>
        <path d="M536.94,296.794C537.155,297.269 537.426,297.134 537.68,298.435C538.112,300.643 538.034,310.248 538.05,310.643C538.059,310.869 538.186,311.53 538.295,311.653C539.467,312.977 539.989,312.221 541.127,312.898C541.933,313.378 542.43,314.346 542.507,314.496C543.471,316.372 543.224,316.862 543.322,317.523C543.312,317.564 543.238,320.764 540.324,322.088C537.501,323.371 532.576,321.197 534.059,315.382C534.729,312.752 534.795,312.739 534.764,304.483C534.756,302.403 534.702,302.413 534.649,301.43C533.908,299.863 533.227,299.623 534.469,298.403C534.469,298.403 536.743,296.923 536.94,296.794Z" style="fill:rgb(212,104,101);"/>
        <path d="M653.846,253.544C653.82,256.294 654.054,256.166 652.845,258.622C651.973,260.394 650.219,265.746 650.013,266.374C648.148,272.066 647.565,271.757 646.782,272.509C646.197,270.589 646.384,270.449 644.947,269.054C642.905,267.073 641.879,267.689 641.501,267.472C641.028,267.201 640.799,266.605 640.325,266.334C640.718,265.752 645.061,256.948 645.232,256.777C645.427,256.581 649.136,254.134 651.525,254.169C653.303,254.195 653.662,253.766 653.846,253.544Z" style="fill:rgb(86,59,127);"/>
        <g transform="matrix(1,0,0,1,-17.454545,9.818182)">
            <path d="M707.86,222.805C708.204,222.69 708.199,222.733 708.541,222.618C709.476,222.306 709.48,222.38 710.447,222.135C710.923,222.153 713.128,221.861 714.715,223.212C718.922,226.789 717.083,234.506 710.477,233.723C708.48,233.486 701.675,230.137 707.86,222.805Z" style="fill:rgb(221,108,69);"/>
        </g>
        <path d="M487.425,348.629C483.183,343.801 483.393,343.65 479.737,338.36C479.595,338.155 476.477,333.13 475.598,331.452C474.939,330.194 473.302,326.155 473.113,325.69C472.738,324.764 471.084,322.135 470.223,318.557C470.186,318.401 469.835,316.944 469.974,316.573C470.779,314.427 472.299,316.403 472.418,316.558C473.083,317.422 472.545,317.737 474.695,322.41C477.057,327.542 476.713,329.177 478.626,331.275C481.763,334.716 481.33,336.55 485.046,340.865C485.346,341.214 487.924,344.207 488.419,345.529C488.706,346.295 488.69,346.426 488.681,346.506C488.657,346.702 488.59,346.659 487.425,348.629Z" style="fill:rgb(203,181,230);"/>
        <path d="M543.477,252.711C543.302,253.083 542.634,253.341 542.512,255.502C542.489,255.901 542.601,255.899 542.544,260.499C542.512,263.028 541.508,263.363 541.409,263.55C535.695,259.672 531.512,261.375 533.682,256.574C536.143,251.129 536.268,251.037 536.692,250.726C537.99,249.775 540.833,251.76 542.503,252.44C542.815,252.567 543.165,252.584 543.477,252.711Z" style="fill:rgb(141,109,160);"/>
        <path d="M687.427,245.865C687.803,246.08 688.253,246.143 688.629,246.358C689.045,246.597 690.572,249.732 686.497,249.68C669.195,249.461 668.619,250.187 668.005,248.746C666.864,246.068 670.202,245.925 670.504,245.912C671.703,245.86 671.683,246.14 685.512,245.841C686.592,245.818 686.572,245.854 687.427,245.865Z" style="fill:rgb(221,116,74);"/>
        <path d="M501.329,267.283C501.758,267.001 503.753,265.124 506.505,266.488C508.718,267.585 509.209,270.378 509.12,271.473C508.604,277.767 500.86,277.27 499.709,272.45C498.894,269.03 501.197,267.424 501.329,267.283Z" style="fill:rgb(67,40,83);"/>
        <path d="M604.482,311.319C604.132,311.733 603.85,312.201 603.5,312.615C602.221,314.127 601.865,313.792 601.283,314.097C601.019,314.235 600.835,314.491 600.59,314.662C599.716,315.271 596.561,316.964 594.62,317.782C594.37,317.888 591.682,319.022 591.455,319.011C590.165,318.951 590.399,317.639 590.424,317.494C590.552,316.775 590.887,316.107 591.101,315.408C591.76,313.261 592.039,313.405 592.894,312.08C594.202,311.888 595.302,311.58 595.508,311.522C597.264,311.029 600.758,311.188 604.482,311.319Z" style="fill:rgb(81,66,123);"/>
        <g transform="matrix(1,0,0,1,-17.454545,9.818182)">
            <path d="M715.428,239.525C715.657,240.559 718.199,252.075 715.61,252.769C713.02,253.464 712.848,249.032 712.798,248.444C712.122,240.507 710.708,236.923 713.524,237.211C714.207,237.281 714.794,238.101 714.872,238.21C714.939,238.303 714.913,238.307 715.428,239.525Z" style="fill:rgb(100,185,177);"/>
        </g>
        <path d="M535.427,285.586C536.613,285.33 536.575,284.996 543.394,285.055C544.094,285.201 544.794,285.346 545.494,285.492C542.902,289.228 542.885,289.21 542.728,289.571C542.286,290.589 542.236,293.393 542.22,293.431C542.051,293.815 541.611,294.037 541.442,294.421C540.888,293.782 541.057,293.676 540.5,293.034C540.154,292.634 540.052,292.78 539.692,292.402C539.53,292.233 539.519,291.934 539.326,291.802C539.021,291.594 537.06,291.489 536.442,291.451C536.371,291.134 536.358,291.142 535.495,287.501C535.249,286.459 535.427,285.611 535.427,285.586Z" style="fill:rgb(131,98,150);"/>
        <path d="M597.476,307.791C600.498,307.847 600.48,307.748 603.492,307.78C607.808,307.827 607.286,310.257 607.34,310.381C606.078,311.282 606.009,311.141 604.482,311.319C600.758,311.188 597.264,311.029 595.508,311.522C595.302,311.58 594.202,311.888 592.894,312.08C592.604,311.752 592.179,311.565 591.889,311.237C591.123,310.369 590.696,306.952 595.495,307.536C595.653,307.555 595.642,307.555 597.476,307.791Z" style="fill:rgb(85,173,198);"/>
        <g transform="matrix(1,0,0,1,-17.454545,9.818182)">
            <path d="M707.86,222.805C705.741,216.594 703.147,211.202 705.429,210.35C707.608,209.535 708.473,211.192 708.596,211.43C708.926,212.061 711.258,218.585 711.099,220.464C711.093,220.537 710.996,220.575 710.975,220.645C710.743,221.416 710.711,221.389 710.447,222.135C709.48,222.38 709.476,222.306 708.541,222.618C708.199,222.733 708.204,222.69 707.86,222.805Z" style="fill:rgb(96,186,186);"/>
        </g>
        <path d="M543.477,252.711C543.643,252.767 545.556,253.41 545.556,253.41C546.398,253.811 546.631,254.204 546.73,254.277C546.144,256.344 546.007,256.324 546.078,258.488C546.078,258.495 545.819,264.488 545.785,264.586C545.729,264.747 545.766,264.742 545.534,266.694C544.506,266.664 542.671,266.963 542.16,265.653C541.916,265.027 542.061,265.008 541.835,264.373C541.674,263.923 541.566,263.991 541.409,263.55C541.508,263.363 542.512,263.028 542.544,260.499C542.601,255.899 542.489,255.901 542.512,255.502C542.634,253.341 543.302,253.083 543.477,252.711Z" style="fill:rgb(229,137,132);"/>
        <path d="M571.636,262.148L572.519,262.463C572.533,263.009 572.423,263.541 572.569,264.476C572.897,266.589 572.616,274.794 572.585,275.691C572.19,275.769 571.824,275.964 571.429,276.042C570.276,276.27 570.283,276.064 568.39,275.8C568.536,275.338 568.518,274.834 568.664,274.372C568.756,274.081 569.002,267.988 568.98,267.503C568.877,265.243 569.385,263.439 569.397,263.422C569.523,263.259 569.559,263.33 571.636,262.148Z" style="fill:rgb(232,146,131);"/>
        <path d="M551.763,278.908C551.242,280.267 551.355,280.396 547.732,283.773C546.036,285.354 545.926,285.188 545.494,285.492C544.794,285.346 544.094,285.201 543.394,285.055C543.648,284.79 544.091,284.765 544.345,284.5C544.797,284.031 545.526,282.222 543.416,281.749C543.262,281.715 541.708,281.367 541.488,281.319C540.586,281.124 540.573,281.199 540.5,281.167C539.922,280.918 540.065,280.706 539.476,280.452C539.988,279.998 540.5,279.544 541.012,279.09C542.783,278.436 542.72,278.067 544.525,278.189C548.173,278.436 548.213,278.03 551.763,278.908Z" style="fill:rgb(150,118,162);"/>
        <path d="M562.16,301.511C562.166,301.487 562.305,298.303 564.571,297.724C568.281,296.774 569.933,300.209 569.343,302.451C569.019,303.681 566.15,306.051 563.277,303.772C561.947,302.717 562.271,301.862 562.16,301.511Z" style="fill:rgb(74,45,87);"/>
        <path d="M587.494,271.35C589.362,271.31 589.35,271.3 589.511,271.307C593.362,271.475 592.01,274.216 591.593,274.589C591.111,275.019 590.477,275.586 583.54,275.136C583.235,275.116 579.406,274.867 580.673,272.608C581.366,271.373 585.637,271.457 587.494,271.35Z" style="fill:rgb(233,138,133);"/>
        <path d="M488.258,349.597C490.337,348.575 490.302,348.519 490.5,348.495C491.108,348.419 492.274,349.483 492.405,349.602C498.62,355.272 499.362,355.101 499.017,356.445C498.679,357.76 497.578,358.225 497.572,358.232C494.57,356.443 494.771,356.206 492.2,353.815C489.298,351.117 489.386,351.051 488.258,349.597Z" style="fill:rgb(202,178,231);"/>
        <path d="M542.092,275.324C542.222,275.298 543.721,274.994 543.721,274.994C548.614,275.205 552.295,274.167 553.36,276.461C553.631,277.044 553.642,277.667 553.645,277.775C553.647,277.911 553.389,277.958 553.391,278.094C553.216,278.146 553.032,277.919 552.857,277.971C552.746,278.004 552.776,278.04 551.763,278.908C548.213,278.03 548.173,278.436 544.525,278.189C542.72,278.067 542.783,278.436 541.012,279.09C541.127,278.871 541.329,278.705 541.444,278.486C541.565,278.258 541.819,277.775 542.092,275.324Z" style="fill:rgb(229,146,137);"/>
        <path d="M539.476,280.452C540.065,280.706 539.922,280.918 540.5,281.167C540.573,281.199 540.586,281.124 541.488,281.319C541.708,281.367 543.262,281.715 543.416,281.749C545.526,282.222 544.797,284.031 544.345,284.5C544.091,284.765 543.648,284.79 543.394,285.055C536.575,284.996 536.613,285.33 535.427,285.586C535.274,285.427 534.996,285.431 534.844,285.271C534.68,285.099 533.184,283.536 535.398,282.355C536.105,281.977 537.96,281.399 539.476,280.452Z" style="fill:rgb(218,133,140);"/>
        <path d="M493.488,258.544C493.769,258.662 494.101,258.624 494.383,258.742C494.911,258.965 498.075,260.998 498.5,261.397C498.883,261.756 499.149,262.226 499.532,262.585C497.206,264.202 497.308,264.31 495.518,266.508C495.255,266.248 495.315,265.76 495.051,265.5C494.342,264.799 492.578,264.916 490.987,261.239C491.304,260.74 491.621,260.24 491.937,259.74C492.454,259.341 492.971,258.942 493.488,258.544Z" style="fill:rgb(156,56,84);"/>
        <path d="M513.712,277.46C514.154,277.967 514.194,277.916 514.582,278.459C516.907,281.71 517.645,282.301 517.571,282.442C517.325,282.917 516.732,283.108 516.317,283.446C515.448,284.155 514.894,285.316 514.55,285.452C514.336,285.538 510.922,281.888 510.597,281.385C510.486,281.214 510.496,280.983 510.385,280.812C510.15,280.449 509.806,280.165 509.571,279.802C509.833,279.586 510.19,279.505 510.452,279.289C510.836,278.973 510.701,278.394 513.712,277.46Z" style="fill:rgb(179,67,85);"/>
        <path d="M439.497,276.533C440.937,276.932 441.182,276.62 441.574,277.444C442.998,280.438 437.595,282.454 436.481,279.509C435.489,276.885 438.221,276.583 438.506,276.551C438.834,276.515 439.168,276.569 439.497,276.533Z" style="fill:rgb(216,201,236);"/>
        <path d="M557.595,265.968C557.915,266.045 558.259,265.962 558.578,266.039C561.134,266.657 560.741,269.541 559.331,270.166C556.612,271.37 554.786,268.075 556.492,266.491C556.79,266.214 557.297,266.245 557.595,265.968Z" style="fill:rgb(192,110,124);"/>
        <g transform="matrix(1,0,0,1,-17.454545,9.818182)">
            <path d="M709.162,228.594C709.253,228.215 709.098,227.806 709.188,227.427C709.36,226.707 710.441,225.973 710.666,225.917C713.16,225.303 714.227,228.027 712.524,229.53C710.906,230.959 709.735,229.614 709.58,229.436C709.375,229.2 709.368,228.83 709.162,228.594Z" style="fill:rgb(251,195,162);"/>
        </g>
        <path d="M517.498,313.965C517.852,314.117 518.272,314.059 518.626,314.211C520.04,314.815 520.132,317.344 518.709,317.897C517.241,318.467 515.762,317.537 515.749,316.434C515.723,314.356 516.398,314.636 517.498,313.965Z" style="fill:rgb(101,58,106);"/>
        <g transform="matrix(1,0,0,1,-17.454545,9.818182)">
            <path d="M725.038,245.316C725.273,245.113 725.28,244.719 725.515,244.515C725.646,244.402 726.432,243.72 727.636,244.095C729.313,244.616 728.899,246.394 728.849,246.612C728.433,248.399 725.253,248.533 724.891,246.446C724.826,246.072 725.103,245.691 725.038,245.316Z" style="fill:rgb(248,201,179);"/>
        </g>
        <path d="M610.056,274.837C609.982,274.56 609.839,274.645 609.767,274.372C609.749,274.304 609.65,273.932 609.699,273.496C609.968,271.117 614.202,271.554 613.394,274.46C613.087,275.566 611.398,275.762 610.604,275.348C610.382,275.233 610.278,274.953 610.056,274.837Z" style="fill:rgb(163,110,146);"/>
        <path d="M537.747,319.084C537.652,318.907 537.431,318.819 537.336,318.641C536.044,316.232 538.067,315.689 538.51,315.716C540.801,315.852 540.801,319.478 538.525,319.334C538.253,319.317 538.019,319.102 537.747,319.084Z" style="fill:rgb(130,63,98);"/>
        <path d="M603.216,299.297C602.997,299.392 602.866,299.638 602.647,299.733C600.787,300.54 599.576,299.018 600.332,297.384C600.722,296.542 602.814,296.24 603.36,297.548C603.78,298.553 603.218,299.27 603.216,299.297Z" style="fill:rgb(109,77,134);"/>
        <path d="M434.886,243.54C434.654,243.793 434.714,244.234 434.483,244.488C432.902,246.22 430.509,243.663 432.154,242.105C432.969,241.334 434.384,241.815 434.644,242.418C434.795,242.77 434.734,243.188 434.886,243.54Z" style="fill:rgb(169,104,138);"/>
        <path d="M450.064,255.54C449.896,255.881 449.925,256.296 449.757,256.636C449.137,257.896 446.604,257.585 446.745,255.527C446.853,253.971 448.894,253.92 449.497,254.503C449.78,254.777 449.781,255.266 450.064,255.54Z" style="fill:rgb(160,96,128);"/>
        <path d="M450.667,232.461C450.563,232.804 450.691,233.191 450.588,233.534C450.134,235.042 447.184,234.763 447.553,232.513C447.747,231.331 449.525,230.984 450.224,231.707C450.427,231.916 450.464,232.252 450.667,232.461Z" style="fill:rgb(172,106,140);"/>
        <path d="M640.659,274.322C640.635,274.198 639.942,273.683 640.284,272.415C640.317,272.292 640.535,271.485 641.478,271.364C643.624,271.09 644.006,274.259 641.518,274.431C641.23,274.451 640.947,274.302 640.659,274.322Z" style="fill:rgb(111,56,105);"/>
    </g>
</svg>
